<?xml version="1.0" encoding="utf-8" standalone="no"?>
<!DOCTYPE svg PUBLIC "-//W3C//DTD SVG 1.1//EN"
  "http://www.w3.org/Graphics/SVG/1.1/DTD/svg11.dtd">
<svg height="345.6pt" version="1.1" viewBox="0 0 460.8 345.6" width="460.8pt" xmlns="http://www.w3.org/2000/svg" xmlns:xlink="http://www.w3.org/1999/xlink">
 <metadata>
  <rdf:RDF xmlns:cc="http://creativecommons.org/ns#" xmlns:dc="http://purl.org/dc/elements/1.1/" xmlns:rdf="http://www.w3.org/1999/02/22-rdf-syntax-ns#">
   <cc:Work>
    <dc:type rdf:resource="http://purl.org/dc/dcmitype/StillImage"/>
    <dc:date>2021-08-23T09:43:43.257763</dc:date>
    <dc:format>image/svg+xml</dc:format>
    <dc:creator>
     <cc:Agent>
      <dc:title>Matplotlib v3.4.2, https://matplotlib.org/</dc:title>
     </cc:Agent>
    </dc:creator>
   </cc:Work>
  </rdf:RDF>
 </metadata>
 <defs>
  <style type="text/css">*{stroke-linecap:butt;stroke-linejoin:round;}</style>
 </defs>
 <g id="figure_1">
  <g id="patch_1">
   <path d="M 0 345.6 
L 460.8 345.6 
L 460.8 0 
L 0 0 
z
" style="fill:#ffffff;"/>
  </g>
  <g id="axes_1">
   <g id="patch_2">
    <path d="M 74.346535 130.228875 
L 447.84 130.228875 
L 447.84 12.96 
L 74.346535 12.96 
z
" style="fill:#eaeaf2;"/>
   </g>
   <g id="matplotlib.axis_1">
    <g id="xtick_1">
     <g id="line2d_1">
      <path clip-path="url(#p3dd71903c1)" d="M 91.323511 130.228875 
L 91.323511 12.96 
" style="fill:none;stroke:#ffffff;stroke-linecap:round;"/>
     </g>
     <g id="text_1">
      <!-- 0 -->
      <g style="fill:#262626;" transform="translate(88.573511 147.241531)scale(0.11 -0.11)">
       <defs>
        <path d="M 3046 2112 
Q 3046 1683 2963 1302 
Q 2880 922 2717 602 
Q 2554 282 2266 96 
Q 1978 -90 1600 -90 
Q 1210 -90 915 108 
Q 621 307 461 640 
Q 301 973 227 1350 
Q 154 1728 154 2150 
Q 154 2746 301 3222 
Q 448 3699 790 4012 
Q 1133 4326 1626 4326 
Q 2253 4326 2649 3712 
Q 3046 3098 3046 2112 
z
M 2432 2080 
Q 2432 3091 2217 3625 
Q 2003 4160 1587 4160 
Q 1190 4160 979 3622 
Q 768 3085 768 2106 
Q 768 1120 979 598 
Q 1190 77 1600 77 
Q 2003 77 2217 598 
Q 2432 1120 2432 2080 
z
" id="STIXGeneral-Regular-30" transform="scale(0.015625)"/>
       </defs>
       <use xlink:href="#STIXGeneral-Regular-30"/>
      </g>
     </g>
    </g>
    <g id="xtick_2">
     <g id="line2d_2">
      <path clip-path="url(#p3dd71903c1)" d="M 137.84852 130.228875 
L 137.84852 12.96 
" style="fill:none;stroke:#ffffff;stroke-linecap:round;"/>
     </g>
     <g id="text_2">
      <!-- 500 -->
      <g style="fill:#262626;" transform="translate(129.59852 147.241531)scale(0.11 -0.11)">
       <defs>
        <path d="M 2803 4358 
L 2573 3814 
Q 2534 3731 2400 3731 
L 1158 3731 
L 902 3187 
Q 1606 3053 1920 2896 
Q 2234 2739 2502 2368 
Q 2726 2061 2726 1555 
Q 2726 1094 2576 780 
Q 2426 467 2099 224 
Q 1664 -90 1011 -90 
Q 646 -90 422 19 
Q 198 128 198 307 
Q 198 550 486 550 
Q 717 550 960 352 
Q 1210 147 1414 147 
Q 1747 147 2012 480 
Q 2278 813 2278 1229 
Q 2278 1843 1850 2189 
Q 1293 2637 486 2637 
Q 410 2637 410 2688 
L 416 2720 
L 1114 4237 
L 2438 4237 
Q 2547 4237 2608 4269 
Q 2669 4301 2746 4403 
L 2803 4358 
z
" id="STIXGeneral-Regular-35" transform="scale(0.015625)"/>
       </defs>
       <use xlink:href="#STIXGeneral-Regular-35"/>
       <use x="49.999985" xlink:href="#STIXGeneral-Regular-30"/>
       <use x="99.999969" xlink:href="#STIXGeneral-Regular-30"/>
      </g>
     </g>
    </g>
    <g id="xtick_3">
     <g id="line2d_3">
      <path clip-path="url(#p3dd71903c1)" d="M 184.373528 130.228875 
L 184.373528 12.96 
" style="fill:none;stroke:#ffffff;stroke-linecap:round;"/>
     </g>
     <g id="text_3">
      <!-- 1000 -->
      <g style="fill:#262626;" transform="translate(173.373528 147.241531)scale(0.11 -0.11)">
       <defs>
        <path d="M 2522 0 
L 755 0 
L 755 96 
Q 1107 115 1235 227 
Q 1363 339 1363 608 
L 1363 3482 
Q 1363 3795 1171 3795 
Q 1082 3795 883 3718 
L 710 3654 
L 710 3744 
L 1856 4326 
L 1914 4307 
L 1914 486 
Q 1914 275 2042 185 
Q 2170 96 2522 96 
L 2522 0 
z
" id="STIXGeneral-Regular-31" transform="scale(0.015625)"/>
       </defs>
       <use xlink:href="#STIXGeneral-Regular-31"/>
       <use x="49.999985" xlink:href="#STIXGeneral-Regular-30"/>
       <use x="99.999969" xlink:href="#STIXGeneral-Regular-30"/>
       <use x="149.999954" xlink:href="#STIXGeneral-Regular-30"/>
      </g>
     </g>
    </g>
    <g id="xtick_4">
     <g id="line2d_4">
      <path clip-path="url(#p3dd71903c1)" d="M 230.898537 130.228875 
L 230.898537 12.96 
" style="fill:none;stroke:#ffffff;stroke-linecap:round;"/>
     </g>
     <g id="text_4">
      <!-- 1500 -->
      <g style="fill:#262626;" transform="translate(219.898537 147.241531)scale(0.11 -0.11)">
       <use xlink:href="#STIXGeneral-Regular-31"/>
       <use x="49.999985" xlink:href="#STIXGeneral-Regular-35"/>
       <use x="99.999969" xlink:href="#STIXGeneral-Regular-30"/>
       <use x="149.999954" xlink:href="#STIXGeneral-Regular-30"/>
      </g>
     </g>
    </g>
    <g id="xtick_5">
     <g id="line2d_5">
      <path clip-path="url(#p3dd71903c1)" d="M 277.423546 130.228875 
L 277.423546 12.96 
" style="fill:none;stroke:#ffffff;stroke-linecap:round;"/>
     </g>
     <g id="text_5">
      <!-- 2000 -->
      <g style="fill:#262626;" transform="translate(266.423546 147.241531)scale(0.11 -0.11)">
       <defs>
        <path d="M 3034 877 
L 2688 0 
L 186 0 
L 186 77 
L 1325 1286 
Q 1773 1754 1965 2144 
Q 2157 2534 2157 2950 
Q 2157 3379 1920 3616 
Q 1683 3853 1267 3853 
Q 922 3853 720 3673 
Q 518 3494 326 3021 
L 192 3053 
Q 301 3648 630 3987 
Q 960 4326 1523 4326 
Q 2054 4326 2380 4006 
Q 2707 3686 2707 3200 
Q 2707 2477 1888 1613 
L 832 486 
L 2330 486 
Q 2541 486 2665 569 
Q 2790 653 2944 915 
L 3034 877 
z
" id="STIXGeneral-Regular-32" transform="scale(0.015625)"/>
       </defs>
       <use xlink:href="#STIXGeneral-Regular-32"/>
       <use x="49.999985" xlink:href="#STIXGeneral-Regular-30"/>
       <use x="99.999969" xlink:href="#STIXGeneral-Regular-30"/>
       <use x="149.999954" xlink:href="#STIXGeneral-Regular-30"/>
      </g>
     </g>
    </g>
    <g id="xtick_6">
     <g id="line2d_6">
      <path clip-path="url(#p3dd71903c1)" d="M 323.948554 130.228875 
L 323.948554 12.96 
" style="fill:none;stroke:#ffffff;stroke-linecap:round;"/>
     </g>
     <g id="text_6">
      <!-- 2500 -->
      <g style="fill:#262626;" transform="translate(312.948554 147.241531)scale(0.11 -0.11)">
       <use xlink:href="#STIXGeneral-Regular-32"/>
       <use x="49.999985" xlink:href="#STIXGeneral-Regular-35"/>
       <use x="99.999969" xlink:href="#STIXGeneral-Regular-30"/>
       <use x="149.999954" xlink:href="#STIXGeneral-Regular-30"/>
      </g>
     </g>
    </g>
    <g id="xtick_7">
     <g id="line2d_7">
      <path clip-path="url(#p3dd71903c1)" d="M 370.473563 130.228875 
L 370.473563 12.96 
" style="fill:none;stroke:#ffffff;stroke-linecap:round;"/>
     </g>
     <g id="text_7">
      <!-- 3000 -->
      <g style="fill:#262626;" transform="translate(359.473563 147.241531)scale(0.11 -0.11)">
       <defs>
        <path d="M 390 3264 
L 288 3290 
Q 435 3770 748 4048 
Q 1062 4326 1542 4326 
Q 1990 4326 2265 4083 
Q 2541 3840 2541 3450 
Q 2541 2925 1946 2566 
Q 2298 2413 2477 2227 
Q 2758 1914 2758 1402 
Q 2758 890 2464 506 
Q 2246 211 1840 60 
Q 1434 -90 979 -90 
Q 262 -90 262 275 
Q 262 378 339 442 
Q 416 506 525 506 
Q 685 506 915 339 
Q 1197 141 1466 141 
Q 1818 141 2058 425 
Q 2298 710 2298 1120 
Q 2298 1856 1632 2048 
Q 1434 2112 979 2112 
L 979 2202 
Q 1338 2323 1517 2432 
Q 2035 2726 2035 3290 
Q 2035 3610 1852 3776 
Q 1670 3942 1344 3942 
Q 768 3942 390 3264 
z
" id="STIXGeneral-Regular-33" transform="scale(0.015625)"/>
       </defs>
       <use xlink:href="#STIXGeneral-Regular-33"/>
       <use x="49.999985" xlink:href="#STIXGeneral-Regular-30"/>
       <use x="99.999969" xlink:href="#STIXGeneral-Regular-30"/>
       <use x="149.999954" xlink:href="#STIXGeneral-Regular-30"/>
      </g>
     </g>
    </g>
    <g id="xtick_8">
     <g id="line2d_8">
      <path clip-path="url(#p3dd71903c1)" d="M 416.998572 130.228875 
L 416.998572 12.96 
" style="fill:none;stroke:#ffffff;stroke-linecap:round;"/>
     </g>
     <g id="text_8">
      <!-- 3500 -->
      <g style="fill:#262626;" transform="translate(405.998572 147.241531)scale(0.11 -0.11)">
       <use xlink:href="#STIXGeneral-Regular-33"/>
       <use x="49.999985" xlink:href="#STIXGeneral-Regular-35"/>
       <use x="99.999969" xlink:href="#STIXGeneral-Regular-30"/>
       <use x="149.999954" xlink:href="#STIXGeneral-Regular-30"/>
      </g>
     </g>
    </g>
    <g id="text_9">
     <!-- day -->
     <g style="fill:#262626;" transform="translate(252.428893 161.8245)scale(0.12 -0.12)">
      <defs>
       <path d="M 3142 269 
L 2202 -64 
L 2176 -45 
L 2176 365 
Q 1869 -64 1357 -64 
Q 826 -64 499 317 
Q 173 698 173 1312 
Q 173 1990 563 2467 
Q 954 2944 1504 2944 
Q 1850 2944 2176 2669 
L 2176 3667 
Q 2176 3866 2118 3930 
Q 2061 3994 1882 3994 
Q 1792 3994 1741 3987 
L 1741 4090 
Q 2323 4243 2682 4371 
L 2714 4358 
L 2714 730 
Q 2714 506 2768 435 
Q 2822 365 2995 365 
Q 3034 365 3142 371 
L 3142 269 
z
M 2176 653 
L 2176 2125 
Q 2176 2381 1981 2573 
Q 1786 2765 1523 2765 
Q 1158 2765 940 2438 
Q 723 2112 723 1568 
Q 723 979 963 624 
Q 1203 269 1606 269 
Q 1907 269 2080 474 
Q 2176 582 2176 653 
z
" id="STIXGeneral-Regular-64" transform="scale(0.015625)"/>
       <path d="M 2829 422 
L 2829 243 
Q 2586 -64 2253 -64 
Q 1888 -64 1843 403 
L 1837 403 
Q 1427 -64 909 -64 
Q 608 -64 422 112 
Q 237 288 237 602 
Q 237 1050 685 1350 
Q 992 1555 1837 1869 
L 1837 2214 
Q 1837 2502 1699 2646 
Q 1562 2790 1338 2790 
Q 1146 2790 1018 2697 
Q 890 2605 890 2477 
Q 890 2419 909 2348 
Q 928 2278 928 2208 
Q 928 2112 841 2029 
Q 755 1946 634 1946 
Q 525 1946 441 2029 
Q 358 2112 358 2240 
Q 358 2547 685 2752 
Q 986 2944 1421 2944 
Q 1939 2944 2176 2656 
Q 2291 2522 2323 2384 
Q 2355 2246 2355 1946 
L 2355 723 
Q 2355 301 2554 301 
Q 2682 301 2829 422 
z
M 1837 813 
L 1837 1715 
Q 1248 1510 1018 1293 
Q 800 1094 800 800 
Q 800 557 921 432 
Q 1043 307 1242 307 
Q 1453 307 1613 410 
Q 1747 506 1792 589 
Q 1837 672 1837 813 
z
" id="STIXGeneral-Regular-61" transform="scale(0.015625)"/>
       <path d="M 3040 2880 
L 3040 2784 
Q 2925 2771 2854 2700 
Q 2784 2630 2720 2458 
L 1760 -160 
Q 1510 -838 1257 -1116 
Q 1005 -1395 640 -1395 
Q 435 -1395 313 -1289 
Q 192 -1184 192 -1024 
Q 192 -902 272 -816 
Q 352 -730 467 -730 
Q 653 -730 800 -813 
Q 883 -858 966 -858 
Q 1101 -858 1286 -576 
Q 1376 -448 1459 -211 
Q 1542 26 1542 115 
Q 1542 198 1274 762 
L 429 2566 
Q 346 2752 90 2790 
L 90 2880 
L 1402 2880 
L 1402 2784 
Q 1197 2778 1117 2739 
Q 1037 2701 1037 2611 
Q 1037 2541 1120 2349 
L 1837 749 
L 2458 2515 
Q 2483 2573 2483 2630 
Q 2483 2784 2189 2784 
L 2189 2880 
L 3040 2880 
z
" id="STIXGeneral-Regular-79" transform="scale(0.015625)"/>
      </defs>
      <use xlink:href="#STIXGeneral-Regular-64"/>
      <use x="49.999985" xlink:href="#STIXGeneral-Regular-61"/>
      <use x="94.399979" xlink:href="#STIXGeneral-Regular-79"/>
     </g>
    </g>
   </g>
   <g id="matplotlib.axis_2">
    <g id="ytick_1">
     <g id="line2d_9">
      <path clip-path="url(#p3dd71903c1)" d="M 74.346535 124.898472 
L 447.84 124.898472 
" style="fill:none;stroke:#ffffff;stroke-linecap:round;"/>
     </g>
     <g id="text_10">
      <!-- 0 -->
      <g style="fill:#262626;" transform="translate(59.346535 128.6548)scale(0.11 -0.11)">
       <use xlink:href="#STIXGeneral-Regular-30"/>
      </g>
     </g>
    </g>
    <g id="ytick_2">
     <g id="line2d_10">
      <path clip-path="url(#p3dd71903c1)" d="M 74.346535 84.363084 
L 447.84 84.363084 
" style="fill:none;stroke:#ffffff;stroke-linecap:round;"/>
     </g>
     <g id="text_11">
      <!-- 10 -->
      <g style="fill:#262626;" transform="translate(53.846535 88.119413)scale(0.11 -0.11)">
       <use xlink:href="#STIXGeneral-Regular-31"/>
       <use x="49.999985" xlink:href="#STIXGeneral-Regular-30"/>
      </g>
     </g>
    </g>
    <g id="ytick_3">
     <g id="line2d_11">
      <path clip-path="url(#p3dd71903c1)" d="M 74.346535 43.827697 
L 447.84 43.827697 
" style="fill:none;stroke:#ffffff;stroke-linecap:round;"/>
     </g>
     <g id="text_12">
      <!-- 20 -->
      <g style="fill:#262626;" transform="translate(53.846535 47.584025)scale(0.11 -0.11)">
       <use xlink:href="#STIXGeneral-Regular-32"/>
       <use x="49.999985" xlink:href="#STIXGeneral-Regular-30"/>
      </g>
     </g>
    </g>
    <g id="text_13">
     <!-- Temperature [$ ^\circ C $] -->
     <g style="fill:#262626;" transform="translate(47.206535 114.794437)rotate(-90)scale(0.12 -0.12)">
      <defs>
       <path d="M 3795 3149 
L 3642 3149 
Q 3539 3674 3353 3821 
Q 3168 3968 2656 3968 
L 2278 3968 
L 2278 710 
Q 2278 346 2387 243 
Q 2496 141 2893 122 
L 2893 0 
L 1024 0 
L 1024 122 
Q 1427 147 1526 256 
Q 1626 365 1626 787 
L 1626 3968 
L 1242 3968 
Q 723 3968 540 3817 
Q 358 3667 262 3149 
L 109 3149 
L 154 4237 
L 3750 4237 
L 3795 3149 
z
" id="STIXGeneral-Regular-54" transform="scale(0.015625)"/>
       <path d="M 2611 1050 
L 2714 1005 
Q 2330 -64 1376 -64 
Q 813 -64 486 329 
Q 160 723 160 1389 
Q 160 2074 525 2509 
Q 890 2944 1485 2944 
Q 2061 2944 2374 2502 
Q 2560 2246 2592 1773 
L 621 1773 
Q 646 1370 700 1158 
Q 755 947 915 730 
Q 1184 378 1626 378 
Q 1939 378 2153 531 
Q 2368 685 2611 1050 
z
M 634 1978 
L 1939 1978 
Q 1882 2381 1750 2547 
Q 1619 2714 1312 2714 
Q 1043 2714 864 2525 
Q 685 2336 634 1978 
z
" id="STIXGeneral-Regular-65" transform="scale(0.015625)"/>
       <path d="M 4960 0 
L 3565 0 
L 3565 96 
Q 3834 122 3907 208 
Q 3981 294 3981 576 
L 3981 1894 
Q 3981 2278 3869 2444 
Q 3757 2611 3488 2611 
Q 3264 2611 3107 2521 
Q 2950 2432 2803 2221 
L 2803 608 
Q 2803 301 2896 201 
Q 2989 102 3264 96 
L 3264 0 
L 1830 0 
L 1830 96 
Q 2112 115 2189 188 
Q 2266 262 2266 550 
L 2266 1901 
Q 2266 2611 1850 2611 
Q 1670 2611 1468 2531 
Q 1267 2451 1171 2336 
Q 1088 2240 1088 2227 
L 1088 448 
Q 1088 243 1177 176 
Q 1267 109 1523 96 
L 1523 0 
L 102 0 
L 102 96 
Q 371 102 460 195 
Q 550 288 550 563 
L 550 2150 
Q 550 2387 499 2480 
Q 448 2573 326 2573 
Q 230 2573 122 2547 
L 122 2656 
Q 557 2778 1011 2944 
L 1062 2925 
L 1062 2451 
L 1075 2451 
Q 1363 2752 1584 2848 
Q 1805 2944 2054 2944 
Q 2560 2944 2733 2406 
Q 3232 2944 3776 2944 
Q 4518 2944 4518 1792 
L 4518 493 
Q 4518 282 4582 202 
Q 4646 122 4794 109 
L 4960 96 
L 4960 0 
z
" id="STIXGeneral-Regular-6d" transform="scale(0.015625)"/>
       <path d="M 1018 2931 
L 1018 2438 
Q 1421 2944 1939 2944 
Q 2406 2944 2707 2560 
Q 3008 2176 3008 1581 
Q 3008 883 2621 409 
Q 2234 -64 1664 -64 
Q 1466 -64 1328 -6 
Q 1190 51 1018 211 
L 1018 -794 
Q 1018 -1094 1120 -1180 
Q 1222 -1267 1581 -1274 
L 1581 -1389 
L 32 -1389 
L 32 -1280 
Q 314 -1254 397 -1171 
Q 480 -1088 480 -838 
L 480 2157 
Q 480 2381 429 2451 
Q 378 2522 218 2522 
Q 115 2522 58 2515 
L 58 2618 
Q 506 2752 979 2944 
L 1018 2931 
z
M 1018 2138 
L 1018 563 
Q 1018 422 1238 281 
Q 1459 141 1683 141 
Q 2029 141 2243 467 
Q 2458 794 2458 1325 
Q 2458 1888 2243 2224 
Q 2029 2560 1670 2560 
Q 1446 2560 1232 2419 
Q 1018 2278 1018 2138 
z
" id="STIXGeneral-Regular-70" transform="scale(0.015625)"/>
       <path d="M 1024 2931 
L 1024 2342 
Q 1267 2688 1430 2816 
Q 1594 2944 1792 2944 
Q 1958 2944 2051 2854 
Q 2144 2765 2144 2605 
Q 2144 2470 2077 2393 
Q 2010 2317 1894 2317 
Q 1773 2317 1638 2445 
Q 1536 2541 1472 2541 
Q 1338 2541 1181 2355 
Q 1024 2170 1024 2016 
L 1024 576 
Q 1024 301 1133 205 
Q 1242 109 1568 96 
L 1568 0 
L 32 0 
L 32 96 
Q 339 154 412 224 
Q 486 294 486 538 
L 486 2138 
Q 486 2349 438 2435 
Q 390 2522 269 2522 
Q 166 2522 45 2496 
L 45 2598 
Q 448 2726 992 2944 
L 1024 2931 
z
" id="STIXGeneral-Regular-72" transform="scale(0.015625)"/>
       <path d="M 1702 493 
L 1786 422 
Q 1478 -64 1011 -64 
Q 448 -64 448 749 
L 448 2675 
L 109 2675 
Q 83 2694 83 2720 
Q 83 2771 192 2842 
Q 435 2982 813 3526 
Q 826 3546 874 3606 
Q 922 3667 941 3706 
Q 986 3706 986 3622 
L 986 2880 
L 1632 2880 
L 1632 2675 
L 986 2675 
L 986 845 
Q 986 538 1062 403 
Q 1139 269 1318 269 
Q 1510 269 1702 493 
z
" id="STIXGeneral-Regular-74" transform="scale(0.015625)"/>
       <path d="M 3072 320 
L 3072 230 
Q 2573 96 2195 -58 
L 2163 -38 
L 2163 486 
L 2150 486 
Q 1747 -64 1235 -64 
Q 870 -64 662 160 
Q 454 384 454 755 
L 454 2362 
Q 454 2598 371 2688 
Q 288 2778 58 2790 
L 58 2880 
L 992 2880 
L 992 813 
Q 992 595 1123 451 
Q 1254 307 1446 307 
Q 1760 307 1984 506 
Q 2067 582 2099 649 
Q 2131 717 2131 877 
L 2131 2355 
Q 2131 2605 2041 2678 
Q 1952 2752 1658 2771 
L 1658 2880 
L 2669 2880 
L 2669 685 
Q 2669 461 2742 390 
Q 2816 320 3034 320 
L 3072 320 
z
" id="STIXGeneral-Regular-75" transform="scale(0.015625)"/>
       <path id="STIXGeneral-Regular-20" transform="scale(0.015625)"/>
       <path d="M 1914 -998 
L 563 -998 
L 563 4237 
L 1914 4237 
L 1914 4077 
L 1382 4077 
Q 1216 4077 1133 4006 
Q 1050 3936 1050 3770 
L 1050 -493 
Q 1050 -838 1382 -838 
L 1914 -838 
L 1914 -998 
z
" id="STIXGeneral-Regular-5b" transform="scale(0.015625)"/>
       <path d="M 1734 2224 
Q 1984 1971 1984 1612 
Q 1984 1254 1731 1001 
Q 1478 749 1120 749 
Q 755 749 505 1001 
Q 256 1254 256 1626 
Q 256 1984 509 2230 
Q 762 2477 1133 2477 
Q 1485 2477 1734 2224 
z
M 1434 1299 
Q 1562 1427 1562 1612 
Q 1562 1798 1434 1926 
Q 1306 2054 1133 2054 
Q 934 2054 806 1929 
Q 678 1805 678 1626 
Q 678 1427 803 1299 
Q 928 1171 1120 1171 
Q 1306 1171 1434 1299 
z
" id="STIXGeneral-Regular-2218" transform="scale(0.015625)"/>
       <path d="M 4410 4250 
L 4173 2970 
L 4058 2989 
Q 3942 4032 3104 4032 
Q 2406 4032 1830 3411 
Q 1491 3053 1315 2541 
Q 1139 2029 1139 1485 
Q 1139 173 2259 173 
Q 2656 173 2985 339 
Q 3315 506 3725 934 
L 3840 838 
Q 3411 333 2998 109 
Q 2586 -115 2093 -115 
Q 1344 -115 883 329 
Q 422 774 422 1555 
Q 422 2214 748 2812 
Q 1075 3411 1619 3795 
Q 2272 4262 3021 4262 
Q 3462 4262 3770 4154 
Q 3898 4109 4032 4109 
Q 4205 4109 4275 4250 
L 4410 4250 
z
" id="STIXGeneral-Italic-43" transform="scale(0.015625)"/>
       <path d="M 1568 -998 
L 218 -998 
L 218 -838 
L 781 -838 
Q 947 -838 1014 -768 
Q 1082 -698 1082 -544 
L 1082 3731 
Q 1082 4077 755 4077 
L 218 4077 
L 218 4237 
L 1568 4237 
L 1568 -998 
z
" id="STIXGeneral-Regular-5d" transform="scale(0.015625)"/>
      </defs>
      <use transform="translate(0 0.40625)" xlink:href="#STIXGeneral-Regular-54"/>
      <use transform="translate(61.099991 0.40625)" xlink:href="#STIXGeneral-Regular-65"/>
      <use transform="translate(105.499985 0.40625)" xlink:href="#STIXGeneral-Regular-6d"/>
      <use transform="translate(183.299973 0.40625)" xlink:href="#STIXGeneral-Regular-70"/>
      <use transform="translate(233.299957 0.40625)" xlink:href="#STIXGeneral-Regular-65"/>
      <use transform="translate(277.699951 0.40625)" xlink:href="#STIXGeneral-Regular-72"/>
      <use transform="translate(310.999939 0.40625)" xlink:href="#STIXGeneral-Regular-61"/>
      <use transform="translate(355.399933 0.40625)" xlink:href="#STIXGeneral-Regular-74"/>
      <use transform="translate(383.199921 0.40625)" xlink:href="#STIXGeneral-Regular-75"/>
      <use transform="translate(433.199905 0.40625)" xlink:href="#STIXGeneral-Regular-72"/>
      <use transform="translate(466.499893 0.40625)" xlink:href="#STIXGeneral-Regular-65"/>
      <use transform="translate(510.899887 0.40625)" xlink:href="#STIXGeneral-Regular-20"/>
      <use transform="translate(535.899872 0.40625)" xlink:href="#STIXGeneral-Regular-5b"/>
      <use transform="translate(580.851138 35.68125)scale(0.7)" xlink:href="#STIXGeneral-Regular-2218"/>
      <use transform="translate(619.8685 0.40625)" xlink:href="#STIXGeneral-Italic-43"/>
      <use transform="translate(686.568497 0.40625)" xlink:href="#STIXGeneral-Regular-5d"/>
     </g>
    </g>
   </g>
   <g id="line2d_12">
    <path clip-path="url(#p3dd71903c1)" d="M 91.323511 40.99022 
L 91.416561 52.340129 
L 91.509611 48.691944 
L 91.602661 65.716806 
L 91.788761 60.85256 
L 91.881811 60.85256 
L 91.974861 54.366898 
L 92.067911 36.531328 
L 92.254011 59.231144 
L 92.347061 70.986407 
L 92.626211 23.560004 
L 92.812311 41.395574 
L 92.905361 24.370711 
L 93.091461 62.068622 
L 93.184511 51.124067 
L 93.277561 75.850653 
L 93.649761 49.097298 
L 93.742811 46.259821 
L 94.021961 63.690037 
L 94.115011 62.473975 
L 94.208061 62.879329 
L 94.394161 36.125974 
L 94.766362 65.716806 
L 94.859412 55.58296 
L 94.952462 23.560004 
L 95.138562 69.364991 
L 95.231612 68.554283 
L 95.510762 35.315266 
L 95.603812 38.963451 
L 95.882962 59.636498 
L 95.976012 61.257914 
L 96.069062 57.609729 
L 96.162112 58.015083 
L 96.348212 66.527514 
L 96.441262 49.908005 
L 96.534312 56.393667 
L 96.627362 53.961544 
L 96.720412 38.963451 
L 96.813462 52.745482 
L 96.906512 49.502652 
L 97.185662 70.986407 
L 97.278712 66.932868 
L 97.371762 78.68813 
L 97.464812 58.825791 
L 97.557862 59.636498 
L 97.650912 77.066715 
L 97.743962 75.445299 
L 97.837012 65.311452 
L 98.023112 79.093484 
L 98.116162 81.930961 
L 98.209212 77.472069 
L 98.302262 67.338222 
L 98.395312 79.498838 
L 98.488362 56.393667 
L 98.581412 57.204375 
L 98.767512 92.470162 
L 98.860562 89.227331 
L 98.953612 70.581053 
L 99.046662 80.7149 
L 99.139712 70.581053 
L 99.232762 80.309546 
L 99.418862 61.257914 
L 99.511912 66.12216 
L 99.698012 57.204375 
L 99.791063 56.799021 
L 99.884113 53.961544 
L 99.977163 55.58296 
L 100.070213 51.529421 
L 100.163263 57.609729 
L 100.256313 84.363084 
L 100.442413 60.447206 
L 100.628513 94.091577 
L 100.814613 70.175699 
L 100.907663 72.202468 
L 101.000713 70.986407 
L 101.093763 75.850653 
L 101.186813 74.634592 
L 101.372913 68.959637 
L 101.559013 88.416623 
L 101.652063 84.363084 
L 101.745113 85.173792 
L 101.838163 78.282776 
L 102.024263 94.902285 
L 102.117313 84.768438 
L 102.210363 87.200562 
L 102.303413 84.768438 
L 102.396463 94.902285 
L 102.489513 90.038039 
L 102.675613 68.14893 
L 102.768663 90.038039 
L 102.861713 84.363084 
L 102.954763 70.175699 
L 103.326963 92.064808 
L 103.513063 81.930961 
L 103.606113 103.414716 
L 103.792213 90.443393 
L 103.885263 79.498838 
L 103.978313 85.173792 
L 104.257463 116.38604 
L 104.443563 103.009363 
L 104.629663 78.282776 
L 104.815763 73.823884 
L 104.908813 80.309546 
L 105.001863 79.498838 
L 105.187964 77.066715 
L 105.281014 73.013176 
L 105.560164 85.173792 
L 105.653214 79.498838 
L 105.746264 101.793301 
L 105.839314 96.118347 
L 105.932364 114.764625 
L 106.118464 106.252194 
L 106.211514 80.309546 
L 106.304564 101.793301 
L 106.583714 78.68813 
L 106.862864 113.953917 
L 106.955914 107.468255 
L 107.048964 99.361178 
L 107.142014 109.495024 
L 107.235064 107.062901 
L 107.328114 96.118347 
L 107.421164 105.441486 
L 107.886414 83.552377 
L 108.072514 86.389854 
L 108.165564 81.525607 
L 108.258614 84.363084 
L 108.351664 98.55047 
L 108.444714 96.523701 
L 108.630814 92.064808 
L 108.723864 98.145116 
L 108.909964 88.821977 
L 109.003014 106.252194 
L 109.096064 97.334408 
L 109.189114 101.793301 
L 109.282164 100.171885 
L 109.468264 95.712993 
L 109.561314 99.361178 
L 109.654364 89.227331 
L 109.747414 104.630778 
L 110.026564 76.256007 
L 110.212664 88.821977 
L 110.305714 85.173792 
L 110.398764 88.416623 
L 110.491815 87.605915 
L 110.584865 93.686223 
L 110.677915 92.470162 
L 110.957065 111.927148 
L 111.236215 88.416623 
L 111.329265 84.363084 
L 111.422315 99.766532 
L 111.515365 96.929054 
L 111.608415 98.55047 
L 111.794515 96.523701 
L 111.980615 112.737855 
L 112.259765 88.416623 
L 112.352815 90.038039 
L 112.538915 82.336315 
L 112.631965 94.091577 
L 112.818065 74.229238 
L 112.911115 94.902285 
L 113.004165 92.875516 
L 113.097215 109.089671 
L 113.190265 98.145116 
L 113.283315 106.252194 
L 113.376365 96.523701 
L 113.562465 102.604009 
L 113.655515 92.064808 
L 113.748565 102.604009 
L 113.841615 99.766532 
L 114.027715 83.147023 
L 114.120765 85.173792 
L 114.213815 85.9845 
L 114.399915 94.496931 
L 114.586015 65.716806 
L 114.772115 93.28087 
L 114.865165 75.039945 
L 114.958215 83.957731 
L 115.051265 78.282776 
L 115.144315 95.307639 
L 115.330415 67.743576 
L 115.423465 81.525607 
L 115.516515 56.393667 
L 115.702615 98.55047 
L 115.795665 80.309546 
L 115.888716 99.361178 
L 115.981766 82.336315 
L 116.074816 95.712993 
L 116.167866 94.091577 
L 116.260916 81.525607 
L 116.353966 93.28087 
L 116.633116 74.634592 
L 116.726166 88.821977 
L 116.819216 71.391761 
L 117.005316 99.766532 
L 117.191416 71.391761 
L 117.284466 66.932868 
L 117.377516 95.307639 
L 117.470566 72.607822 
L 117.656666 99.766532 
L 117.749716 102.198655 
L 117.935816 70.986407 
L 118.028866 91.2541 
L 118.121916 83.552377 
L 118.308016 95.307639 
L 118.587166 71.391761 
L 118.866316 98.145116 
L 119.145466 71.391761 
L 119.238516 74.229238 
L 119.424616 80.309546 
L 119.517666 77.472069 
L 119.610716 87.605915 
L 119.889866 69.364991 
L 119.982916 82.741669 
L 120.075966 78.282776 
L 120.169016 94.091577 
L 120.262066 85.9845 
L 120.448166 61.257914 
L 120.634266 82.336315 
L 120.820366 86.389854 
L 120.913416 79.093484 
L 121.006466 88.821977 
L 121.099516 86.795208 
L 121.192567 76.661361 
L 121.285617 77.472069 
L 121.378667 70.581053 
L 121.471717 73.823884 
L 121.564767 83.957731 
L 121.657817 60.85256 
L 121.936967 84.768438 
L 122.123067 52.745482 
L 122.216117 64.095391 
L 122.495267 82.336315 
L 122.588317 67.338222 
L 122.681367 78.282776 
L 122.867467 64.095391 
L 122.960517 65.311452 
L 123.146617 74.229238 
L 123.332717 64.906099 
L 123.425767 55.177606 
L 123.518817 85.579146 
L 123.704917 73.013176 
L 123.797967 79.498838 
L 123.891017 58.420437 
L 123.984067 61.663268 
L 124.170167 80.309546 
L 124.263217 79.904192 
L 124.356267 64.095391 
L 124.449317 73.013176 
L 124.542367 64.095391 
L 124.728467 68.14893 
L 124.821517 62.068622 
L 124.914567 70.986407 
L 125.007617 61.663268 
L 125.100667 63.284683 
L 125.193717 54.366898 
L 125.286767 55.988313 
L 125.472867 70.175699 
L 125.565917 63.284683 
L 125.752017 74.229238 
L 126.031167 59.231144 
L 126.124217 60.85256 
L 126.310317 34.909912 
L 126.496417 72.202468 
L 126.682518 60.85256 
L 126.775568 27.613542 
L 126.868618 51.934775 
L 126.961668 45.043759 
L 127.054718 22.749296 
L 127.333868 60.85256 
L 127.519968 50.313359 
L 127.613018 70.986407 
L 127.706068 65.716806 
L 127.799118 74.229238 
L 127.985218 55.58296 
L 128.078268 68.14893 
L 128.171318 65.716806 
L 128.264368 70.986407 
L 128.450468 63.690037 
L 128.543518 71.797114 
L 128.636568 69.770345 
L 128.822668 32.883143 
L 129.008768 70.175699 
L 129.380968 32.477789 
L 129.474018 18.290403 
L 129.660118 55.988313 
L 129.846218 73.013176 
L 130.032318 61.663268 
L 130.125368 71.797114 
L 130.218418 63.284683 
L 130.404518 74.229238 
L 130.497568 65.716806 
L 130.590618 82.741669 
L 130.683668 68.554283 
L 130.776718 76.661361 
L 130.869768 70.175699 
L 130.962818 85.173792 
L 131.148918 37.747389 
L 131.241968 45.854467 
L 131.335018 57.204375 
L 131.428068 47.475882 
L 131.614168 88.416623 
L 131.707218 84.363084 
L 131.800268 65.716806 
L 131.893319 74.229238 
L 132.172469 34.909912 
L 132.451619 85.173792 
L 132.730769 40.99022 
L 132.916869 71.391761 
L 133.196019 55.177606 
L 133.289069 70.581053 
L 133.475169 66.932868 
L 133.568219 83.552377 
L 133.661269 82.741669 
L 133.754319 75.039945 
L 133.940419 79.498838 
L 134.033469 90.443393 
L 134.219569 74.634592 
L 134.312619 72.607822 
L 134.405669 83.957731 
L 134.498719 64.095391 
L 134.684819 74.634592 
L 134.870919 59.636498 
L 134.963969 45.854467 
L 135.150069 87.200562 
L 135.243119 83.957731 
L 135.336169 94.902285 
L 135.429219 90.038039 
L 135.522269 93.28087 
L 135.615319 88.011269 
L 135.801419 58.015083 
L 136.080569 96.929054 
L 136.359719 81.120253 
L 136.545819 99.361178 
L 136.731919 68.959637 
L 137.011069 83.957731 
L 137.197169 102.604009 
L 137.47632 81.120253 
L 137.56937 79.498838 
L 137.66242 88.011269 
L 137.75547 109.900378 
L 137.84852 106.252194 
L 137.94157 98.145116 
L 138.12767 63.284683 
L 138.22072 94.091577 
L 138.31377 90.848746 
L 138.40682 100.577239 
L 138.68597 79.904192 
L 138.96512 68.14893 
L 139.15122 78.282776 
L 139.24427 96.523701 
L 139.33732 96.118347 
L 139.43037 88.416623 
L 139.61647 114.764625 
L 139.70952 124.898472 
L 139.98867 101.793301 
L 140.08172 115.575333 
L 140.26782 91.659454 
L 140.36087 96.929054 
L 140.45392 95.307639 
L 140.54697 100.577239 
L 140.73307 94.091577 
L 140.91917 92.470162 
L 141.01222 97.334408 
L 141.10527 95.307639 
L 141.19832 99.766532 
L 141.29137 96.929054 
L 141.38442 88.821977 
L 141.57052 119.628871 
L 141.66357 121.655641 
L 141.94272 93.686223 
L 142.03577 88.416623 
L 142.22187 118.41281 
L 142.50102 109.089671 
L 142.687121 93.28087 
L 142.873221 115.169979 
L 142.966271 113.548563 
L 143.059321 108.684317 
L 143.245421 93.28087 
L 143.431521 111.521794 
L 143.524571 104.630778 
L 143.617621 109.900378 
L 143.710671 109.089671 
L 143.803721 103.82007 
L 143.896771 124.087764 
L 143.989821 121.655641 
L 144.082871 121.250287 
L 144.362021 86.389854 
L 144.455071 88.416623 
L 144.548121 110.711086 
L 144.641171 106.657547 
L 145.013371 85.579146 
L 145.106421 91.2541 
L 145.199471 88.011269 
L 145.385571 115.980686 
L 145.478621 106.657547 
L 145.664721 109.495024 
L 145.757771 99.766532 
L 145.850821 78.282776 
L 146.036921 92.875516 
L 146.129971 88.416623 
L 146.223021 86.389854 
L 146.316071 100.577239 
L 146.502171 87.605915 
L 146.595221 107.468255 
L 146.874371 71.391761 
L 147.060471 104.225424 
L 147.153521 75.850653 
L 147.246571 79.498838 
L 147.432671 106.252194 
L 147.525721 96.523701 
L 147.618771 67.338222 
L 147.711821 73.41853 
L 147.897921 108.684317 
L 148.084022 82.336315 
L 148.270122 106.657547 
L 148.363172 91.659454 
L 148.456222 107.468255 
L 148.549272 85.173792 
L 148.735372 104.630778 
L 148.921472 88.416623 
L 149.014522 110.305732 
L 149.386722 64.095391 
L 149.572822 101.793301 
L 149.758922 108.684317 
L 150.038072 90.443393 
L 150.131122 78.282776 
L 150.224172 93.686223 
L 150.317222 87.605915 
L 150.596372 99.361178 
L 150.689422 90.038039 
L 150.782472 100.171885 
L 150.875522 71.391761 
L 151.061622 105.84684 
L 151.154672 101.387947 
L 151.247722 64.500745 
L 151.433822 90.038039 
L 151.526872 86.795208 
L 151.619922 101.793301 
L 151.806022 71.797114 
L 151.992122 91.659454 
L 152.085172 85.173792 
L 152.271272 101.387947 
L 152.364322 85.173792 
L 152.457372 92.875516 
L 152.736522 81.930961 
L 152.829572 92.470162 
L 152.922622 83.552377 
L 153.015672 63.690037 
L 153.108722 68.554283 
L 153.294822 88.416623 
L 153.387873 71.391761 
L 153.480923 96.523701 
L 153.573973 81.930961 
L 153.667023 96.929054 
L 154.039223 53.150836 
L 154.132273 60.041852 
L 154.318373 82.336315 
L 154.411423 66.527514 
L 154.597523 88.416623 
L 154.783623 66.12216 
L 154.876673 51.934775 
L 155.062773 81.525607 
L 155.248873 89.632685 
L 155.434973 73.823884 
L 155.528023 83.147023 
L 155.714123 60.041852 
L 155.807173 60.85256 
L 155.900223 75.850653 
L 155.993273 74.229238 
L 156.086323 75.445299 
L 156.272423 59.636498 
L 156.365473 62.068622 
L 156.458523 83.147023 
L 156.551573 82.336315 
L 156.737673 76.661361 
L 156.830723 72.202468 
L 157.016823 81.930961 
L 157.202923 72.202468 
L 157.295973 75.445299 
L 157.389023 73.823884 
L 157.482073 49.097298 
L 157.575123 63.284683 
L 157.668173 62.879329 
L 157.761223 68.554283 
L 157.854273 60.85256 
L 158.040373 72.202468 
L 158.133423 69.364991 
L 158.319523 81.120253 
L 158.412573 61.663268 
L 158.505623 62.879329 
L 158.691724 72.202468 
L 158.877824 58.825791 
L 158.970874 60.85256 
L 159.063924 53.150836 
L 159.156974 58.825791 
L 159.250024 50.313359 
L 159.436124 80.7149 
L 159.529174 78.68813 
L 159.622224 64.906099 
L 159.715274 75.850653 
L 159.808324 73.013176 
L 159.901374 59.231144 
L 159.994424 62.068622 
L 160.273574 88.011269 
L 160.552724 73.41853 
L 160.645774 73.41853 
L 160.738824 78.282776 
L 160.831874 68.959637 
L 160.924924 70.986407 
L 161.017974 77.877423 
L 161.111024 62.473975 
L 161.204074 74.634592 
L 161.297124 56.393667 
L 161.483224 81.930961 
L 161.576274 61.663268 
L 161.669324 81.525607 
L 161.948474 66.932868 
L 162.041524 68.14893 
L 162.134574 51.529421 
L 162.227624 54.772252 
L 162.320674 72.202468 
L 162.413724 60.041852 
L 162.506774 64.500745 
L 162.599824 59.231144 
L 162.785924 33.693851 
L 162.972024 60.447206 
L 163.065074 56.799021 
L 163.251174 73.013176 
L 163.344224 68.14893 
L 163.530324 37.747389 
L 163.716424 69.770345 
L 163.809474 66.12216 
L 163.902524 67.338222 
L 163.995574 61.257914 
L 164.088625 45.043759 
L 164.274725 66.527514 
L 164.553875 42.206282 
L 164.739975 44.233051 
L 164.833025 35.72062 
L 164.926075 41.800928 
L 165.019125 35.315266 
L 165.112175 41.395574 
L 165.205225 64.095391 
L 165.391325 37.747389 
L 165.577425 67.743576 
L 165.670475 66.12216 
L 165.763525 39.368805 
L 165.949625 63.284683 
L 166.042675 71.797114 
L 166.135725 71.391761 
L 166.228775 74.229238 
L 166.414875 53.55619 
L 166.507925 62.068622 
L 166.600975 57.204375 
L 166.694025 58.825791 
L 166.880125 73.41853 
L 166.973175 84.363084 
L 167.159275 73.823884 
L 167.345375 84.363084 
L 167.438425 68.554283 
L 167.531475 70.581053 
L 167.624525 74.229238 
L 167.717575 73.013176 
L 167.810625 93.28087 
L 167.903675 79.904192 
L 167.996725 81.525607 
L 168.182825 97.739762 
L 168.275875 101.793301 
L 168.555025 62.068622 
L 168.648075 79.904192 
L 168.741125 77.472069 
L 168.834175 78.282776 
L 169.020275 99.766532 
L 169.113325 97.739762 
L 169.299425 89.227331 
L 169.392476 92.470162 
L 169.671626 58.015083 
L 169.857726 82.336315 
L 170.043826 72.202468 
L 170.136876 89.632685 
L 170.509076 70.175699 
L 170.602126 69.364991 
L 170.695176 70.175699 
L 170.788226 81.525607 
L 170.881276 72.202468 
L 170.974326 77.877423 
L 171.067376 72.202468 
L 171.160426 79.498838 
L 171.253476 70.175699 
L 171.346526 72.607822 
L 171.439576 97.334408 
L 171.625676 66.12216 
L 171.904826 106.252194 
L 171.997876 105.036132 
L 172.183976 91.2541 
L 172.370076 99.766532 
L 172.463126 93.28087 
L 172.556176 71.391761 
L 172.649226 76.661361 
L 172.742276 98.55047 
L 172.928376 75.850653 
L 173.114476 94.496931 
L 173.300576 80.309546 
L 173.393626 81.120253 
L 173.486676 103.414716 
L 173.579726 94.091577 
L 173.672776 102.198655 
L 173.858876 85.9845 
L 173.951926 96.523701 
L 174.044976 91.2541 
L 174.138026 93.28087 
L 174.231076 105.84684 
L 174.417176 95.712993 
L 174.603276 86.389854 
L 174.789377 112.737855 
L 174.882427 118.818164 
L 174.975477 114.764625 
L 175.161577 77.877423 
L 175.347677 98.145116 
L 175.440727 92.470162 
L 175.533777 92.875516 
L 175.626827 111.521794 
L 175.719877 109.089671 
L 175.812927 100.577239 
L 175.905977 108.684317 
L 176.185127 85.173792 
L 176.278177 86.389854 
L 176.371227 95.712993 
L 176.464277 92.064808 
L 176.557327 92.470162 
L 176.743427 89.227331 
L 176.836477 91.2541 
L 176.929527 115.169979 
L 177.115627 100.982593 
L 177.301727 90.848746 
L 177.394777 98.55047 
L 177.487827 92.875516 
L 177.580877 108.278963 
L 177.766977 94.496931 
L 177.953077 114.764625 
L 178.139177 98.145116 
L 178.232227 124.898472 
L 178.325277 122.060994 
L 178.511377 75.039945 
L 178.604427 87.605915 
L 178.697477 85.9845 
L 178.790527 86.389854 
L 178.883577 84.363084 
L 178.976627 93.686223 
L 179.069677 92.470162 
L 179.255777 91.2541 
L 179.348827 106.657547 
L 179.721027 82.336315 
L 179.814077 81.525607 
L 179.907127 84.768438 
L 180.093228 101.387947 
L 180.372378 66.932868 
L 180.651528 112.737855 
L 180.744578 103.82007 
L 180.930678 79.904192 
L 181.023728 82.336315 
L 181.116778 88.416623 
L 181.209828 72.202468 
L 181.302878 98.955824 
L 181.395928 90.848746 
L 181.488978 97.739762 
L 181.675078 79.498838 
L 181.768128 84.363084 
L 181.861178 83.957731 
L 182.047278 80.7149 
L 182.140328 101.793301 
L 182.326428 82.741669 
L 182.512528 75.445299 
L 182.884728 102.604009 
L 182.977778 96.118347 
L 183.070828 98.55047 
L 183.163878 107.468255 
L 183.256928 104.630778 
L 183.349978 79.498838 
L 183.443028 94.496931 
L 183.629128 69.770345 
L 183.722178 91.2541 
L 183.815228 90.443393 
L 183.908278 72.607822 
L 184.187428 110.711086 
L 184.373528 62.473975 
L 184.559628 85.9845 
L 184.652678 87.200562 
L 184.745728 68.554283 
L 184.838778 93.686223 
L 184.931828 86.389854 
L 185.117928 96.929054 
L 185.210978 97.334408 
L 185.304028 101.387947 
L 185.397078 100.577239 
L 185.862329 59.231144 
L 186.048429 77.066715 
L 186.234529 84.363084 
L 186.327579 75.445299 
L 186.420629 88.821977 
L 186.513679 83.147023 
L 186.606729 94.496931 
L 186.792829 73.823884 
L 186.885879 72.607822 
L 186.978929 77.472069 
L 187.071979 68.14893 
L 187.258079 88.416623 
L 187.351129 87.605915 
L 187.444179 85.173792 
L 187.537229 77.066715 
L 187.630279 81.930961 
L 187.723329 73.823884 
L 188.002479 94.496931 
L 188.188579 64.906099 
L 188.374679 93.686223 
L 188.560779 81.120253 
L 188.653829 81.120253 
L 188.839929 71.391761 
L 189.026029 101.793301 
L 189.119079 85.173792 
L 189.212129 95.307639 
L 189.305179 81.120253 
L 189.398229 84.363084 
L 189.491279 59.231144 
L 189.584329 64.095391 
L 189.677379 66.12216 
L 189.770429 60.447206 
L 189.956529 67.338222 
L 190.235679 53.55619 
L 190.421779 78.68813 
L 190.607879 71.391761 
L 190.700929 76.256007 
L 190.793979 62.879329 
L 190.98008 75.850653 
L 191.07313 68.959637 
L 191.16618 80.7149 
L 191.25923 76.256007 
L 191.35228 58.015083 
L 191.44533 64.095391 
L 191.53838 79.498838 
L 191.72448 64.095391 
L 191.81753 64.906099 
L 191.91058 64.095391 
L 192.00363 70.986407 
L 192.09668 42.206282 
L 192.18973 51.934775 
L 192.28278 75.445299 
L 192.37583 57.204375 
L 192.46888 68.959637 
L 192.56193 53.961544 
L 192.84108 79.904192 
L 193.02718 42.206282 
L 193.12023 51.934775 
L 193.21328 45.854467 
L 193.58548 80.309546 
L 193.67853 58.825791 
L 193.77158 59.636498 
L 193.86463 72.202468 
L 193.95768 70.581053 
L 194.05073 63.284683 
L 194.14378 74.229238 
L 194.42293 49.502652 
L 194.51598 51.934775 
L 194.60903 51.124067 
L 194.70208 78.68813 
L 194.79513 76.661361 
L 194.88818 75.445299 
L 194.98123 64.906099 
L 195.26038 82.336315 
L 195.44648 48.691944 
L 195.63258 79.498838 
L 195.72563 81.930961 
L 195.81868 65.311452 
L 196.00478 75.850653 
L 196.09783 65.311452 
L 196.190881 79.904192 
L 196.376981 61.663268 
L 196.470031 67.338222 
L 196.656131 51.934775 
L 196.749181 64.095391 
L 196.842231 60.447206 
L 196.935281 62.068622 
L 197.028331 60.85256 
L 197.121381 57.609729 
L 197.214431 69.770345 
L 197.307481 68.959637 
L 197.586631 57.609729 
L 197.679681 66.932868 
L 197.865781 48.28659 
L 197.958831 49.097298 
L 198.051881 66.12216 
L 198.144931 58.015083 
L 198.424081 77.472069 
L 198.517131 63.690037 
L 198.610181 79.498838 
L 198.703231 70.175699 
L 198.796281 73.823884 
L 198.889331 89.227331 
L 199.168481 66.12216 
L 199.261531 45.854467 
L 199.447631 68.959637 
L 199.540681 82.336315 
L 199.633731 68.959637 
L 199.726781 78.68813 
L 199.819831 61.663268 
L 199.912881 79.904192 
L 200.098981 67.338222 
L 200.192031 80.7149 
L 200.285081 67.338222 
L 200.378131 68.959637 
L 200.471181 63.690037 
L 200.657281 75.850653 
L 200.936431 52.745482 
L 201.029481 86.795208 
L 201.122531 83.552377 
L 201.215581 94.902285 
L 201.308631 89.632685 
L 201.494731 62.879329 
L 201.680832 85.579146 
L 201.773882 83.147023 
L 201.959982 91.659454 
L 202.239132 74.229238 
L 202.332182 88.416623 
L 202.704382 76.256007 
L 202.890482 81.120253 
L 202.983532 73.013176 
L 203.076582 85.173792 
L 203.169632 69.364991 
L 203.262682 80.309546 
L 203.355732 71.391761 
L 203.448782 72.202468 
L 203.541832 83.552377 
L 203.634882 71.391761 
L 203.727932 87.200562 
L 203.820982 79.904192 
L 204.007082 89.632685 
L 204.193182 74.229238 
L 204.286232 98.55047 
L 204.565382 65.311452 
L 204.844532 111.521794 
L 204.937582 110.711086 
L 205.030632 101.793301 
L 205.123682 102.604009 
L 205.402832 84.768438 
L 205.495882 105.036132 
L 205.588932 99.361178 
L 205.681982 105.441486 
L 206.054182 86.795208 
L 206.147232 89.632685 
L 206.240282 86.389854 
L 206.333332 75.850653 
L 206.519432 87.200562 
L 206.705532 92.470162 
L 206.798582 85.173792 
L 206.891633 99.766532 
L 206.984683 95.307639 
L 207.077733 80.7149 
L 207.263833 89.632685 
L 207.356883 88.416623 
L 207.542983 74.634592 
L 207.729083 95.712993 
L 207.822133 79.904192 
L 207.915183 87.200562 
L 208.008233 83.957731 
L 208.101283 109.089671 
L 208.194333 104.630778 
L 208.287383 91.659454 
L 208.380433 113.548563 
L 208.473483 107.468255 
L 208.659583 79.904192 
L 208.752633 105.84684 
L 208.845683 103.414716 
L 208.938733 84.363084 
L 209.124833 115.980686 
L 209.310933 91.2541 
L 209.403983 90.038039 
L 209.497033 83.957731 
L 209.683133 95.712993 
L 210.055333 86.795208 
L 210.148383 93.28087 
L 210.334483 115.169979 
L 210.427533 109.089671 
L 210.520583 119.628871 
L 210.613633 116.38604 
L 210.706683 94.902285 
L 210.799733 95.712993 
L 210.985833 88.821977 
L 211.078883 89.227331 
L 211.171933 92.470162 
L 211.358033 124.493118 
L 211.451083 121.250287 
L 211.544133 93.28087 
L 211.637183 95.712993 
L 211.730233 92.470162 
L 211.823283 106.252194 
L 211.916333 103.82007 
L 212.102433 97.334408 
L 212.195483 92.064808 
L 212.288534 94.496931 
L 212.474634 106.252194 
L 212.660734 85.579146 
L 212.753784 96.523701 
L 212.939884 81.930961 
L 213.032934 78.282776 
L 213.125984 83.552377 
L 213.219034 79.904192 
L 213.312084 80.309546 
L 213.405134 88.821977 
L 213.591234 77.472069 
L 213.684284 77.877423 
L 213.870384 99.361178 
L 213.963434 89.632685 
L 214.056484 90.443393 
L 214.149534 90.443393 
L 214.242584 92.470162 
L 214.335634 100.577239 
L 214.521734 90.443393 
L 214.614784 93.686223 
L 214.800884 88.416623 
L 214.986984 97.334408 
L 215.080034 87.200562 
L 215.173084 97.739762 
L 215.266134 88.416623 
L 215.452234 99.361178 
L 215.545284 92.875516 
L 215.638334 103.82007 
L 215.824434 79.093484 
L 215.917484 87.605915 
L 216.010534 79.093484 
L 216.103584 96.523701 
L 216.196634 92.470162 
L 216.289684 106.252194 
L 216.475784 86.389854 
L 216.568834 86.795208 
L 216.661884 82.336315 
L 216.754934 85.579146 
L 216.847984 105.036132 
L 216.941034 92.470162 
L 217.127134 102.604009 
L 217.313234 77.472069 
L 217.499334 88.821977 
L 217.592385 79.093484 
L 217.778485 99.766532 
L 217.871535 98.145116 
L 217.964585 88.011269 
L 218.057635 100.171885 
L 218.150685 94.496931 
L 218.243735 81.525607 
L 218.429835 102.604009 
L 218.522885 97.739762 
L 218.615935 107.873609 
L 218.802035 58.825791 
L 218.988135 83.147023 
L 219.174235 93.686223 
L 219.267285 60.041852 
L 219.360335 65.716806 
L 219.546435 92.064808 
L 219.732535 55.177606 
L 219.918635 89.632685 
L 220.104735 105.441486 
L 220.383885 85.579146 
L 220.476935 84.768438 
L 220.569985 98.55047 
L 220.663035 85.173792 
L 220.756085 51.124067 
L 220.942185 88.011269 
L 221.035235 85.9845 
L 221.128285 70.175699 
L 221.314385 84.363084 
L 221.407435 90.443393 
L 221.593535 57.609729 
L 221.686585 77.877423 
L 221.779635 75.445299 
L 221.965735 87.605915 
L 222.058785 84.768438 
L 222.244885 61.663268 
L 222.337935 47.881236 
L 222.524035 75.445299 
L 222.617085 76.256007 
L 222.710135 79.904192 
L 222.803185 77.066715 
L 222.896235 94.091577 
L 222.989286 72.202468 
L 223.082336 73.41853 
L 223.175386 60.041852 
L 223.361486 67.338222 
L 223.547586 89.227331 
L 223.640636 77.877423 
L 223.733686 90.038039 
L 223.919786 26.397481 
L 224.105886 81.120253 
L 224.198936 76.256007 
L 224.291986 80.309546 
L 224.385036 73.823884 
L 224.571136 88.011269 
L 224.757236 72.202468 
L 224.850286 73.013176 
L 224.943336 84.768438 
L 225.036386 77.877423 
L 225.129436 82.336315 
L 225.222486 60.447206 
L 225.315536 75.445299 
L 225.408586 72.202468 
L 225.687736 78.68813 
L 225.780786 75.850653 
L 225.873836 56.799021 
L 226.059936 79.093484 
L 226.152986 82.741669 
L 226.246036 67.338222 
L 226.339086 78.68813 
L 226.525186 58.015083 
L 226.711286 75.445299 
L 226.804336 76.256007 
L 226.897386 73.823884 
L 227.083486 58.420437 
L 227.176536 70.986407 
L 227.269586 63.284683 
L 227.455686 73.41853 
L 227.548736 65.716806 
L 227.641786 80.309546 
L 227.734836 71.391761 
L 227.827886 75.445299 
L 227.920936 66.527514 
L 228.013986 69.364991 
L 228.107036 66.12216 
L 228.200086 67.743576 
L 228.293137 66.527514 
L 228.386187 45.043759 
L 228.665337 77.066715 
L 228.758387 76.256007 
L 228.851437 78.68813 
L 228.944487 66.527514 
L 229.037537 74.634592 
L 229.223637 61.663268 
L 229.316687 63.284683 
L 229.409737 73.013176 
L 229.502787 70.986407 
L 229.595837 53.961544 
L 229.781937 70.175699 
L 229.874987 57.204375 
L 230.061087 64.500745 
L 230.154137 83.552377 
L 230.340237 47.881236 
L 230.433287 61.257914 
L 230.526337 51.934775 
L 230.712437 68.554283 
L 230.805487 72.202468 
L 230.898537 62.879329 
L 230.991587 66.932868 
L 231.177687 60.041852 
L 231.270737 64.500745 
L 231.363787 79.904192 
L 231.456837 64.906099 
L 231.735987 80.7149 
L 232.015137 51.529421 
L 232.201237 83.147023 
L 232.387337 68.959637 
L 232.480387 83.147023 
L 232.573437 80.309546 
L 232.759537 62.068622 
L 232.852587 65.311452 
L 233.038687 81.525607 
L 233.131737 73.823884 
L 233.224787 85.173792 
L 233.596987 39.774159 
L 233.690038 34.099204 
L 233.783088 55.988313 
L 233.876138 36.936681 
L 233.969188 38.152743 
L 234.155288 59.231144 
L 234.434438 50.313359 
L 234.527488 55.177606 
L 234.713588 48.691944 
L 235.085788 79.093484 
L 235.271888 57.609729 
L 235.364938 68.14893 
L 235.457988 66.932868 
L 235.551038 58.420437 
L 235.644088 76.661361 
L 235.830188 53.55619 
L 235.923238 53.961544 
L 236.016288 60.447206 
L 236.109338 59.231144 
L 236.295438 60.447206 
L 236.481538 59.231144 
L 236.574588 45.854467 
L 236.667638 51.124067 
L 236.760688 36.531328 
L 237.039838 92.064808 
L 237.132888 86.389854 
L 237.225938 87.200562 
L 237.318988 81.930961 
L 237.412038 99.361178 
L 237.505088 90.038039 
L 237.598138 97.334408 
L 237.691188 89.632685 
L 237.784238 90.848746 
L 238.156438 76.256007 
L 238.342538 86.795208 
L 238.435588 83.957731 
L 238.528638 92.470162 
L 238.807788 62.473975 
L 238.900838 88.416623 
L 239.273039 70.581053 
L 239.459139 97.739762 
L 239.645239 81.120253 
L 239.831339 106.657547 
L 239.924389 94.091577 
L 240.017439 96.929054 
L 240.203539 90.443393 
L 240.296589 102.604009 
L 240.389639 86.389854 
L 240.575739 103.009363 
L 240.668789 102.604009 
L 240.947939 70.581053 
L 241.134039 83.957731 
L 241.227089 107.468255 
L 241.320139 102.604009 
L 241.413189 107.062901 
L 241.692339 91.659454 
L 241.785389 91.659454 
L 241.878439 107.873609 
L 242.064539 84.363084 
L 242.157589 89.227331 
L 242.250639 98.145116 
L 242.436739 83.957731 
L 242.529789 96.118347 
L 242.715889 90.443393 
L 242.901989 96.929054 
L 242.995039 90.848746 
L 243.181139 99.361178 
L 243.274189 122.466348 
L 243.367239 118.41281 
L 243.553339 91.2541 
L 243.646389 92.470162 
L 243.832489 81.930961 
L 243.925539 82.741669 
L 244.018589 77.877423 
L 244.204689 81.525607 
L 244.39079 107.873609 
L 244.57689 102.198655 
L 244.66994 93.686223 
L 244.76299 94.496931 
L 244.85604 105.036132 
L 245.04214 93.28087 
L 245.13519 101.387947 
L 245.32129 90.848746 
L 245.41434 99.766532 
L 245.50739 94.496931 
L 245.69349 111.521794 
L 245.78654 111.927148 
L 245.97264 90.848746 
L 246.15874 123.68241 
L 246.25179 116.38604 
L 246.34484 90.443393 
L 246.43789 119.223517 
L 246.53094 108.278963 
L 246.62399 83.147023 
L 246.81009 100.171885 
L 246.90314 96.523701 
L 246.99619 104.225424 
L 247.18229 96.929054 
L 247.27534 78.68813 
L 247.64754 95.712993 
L 247.74059 94.496931 
L 247.83364 108.684317 
L 248.20584 80.309546 
L 248.29889 90.848746 
L 248.39194 89.227331 
L 248.57804 91.2541 
L 248.76414 110.305732 
L 248.85719 101.793301 
L 248.95024 81.930961 
L 249.04329 96.929054 
L 249.13634 84.363084 
L 249.22939 85.173792 
L 249.32244 95.712993 
L 249.41549 82.336315 
L 249.50854 110.305732 
L 249.787691 83.147023 
L 249.880741 92.875516 
L 249.973791 90.443393 
L 250.066841 92.875516 
L 250.159891 92.470162 
L 250.252941 85.173792 
L 250.439041 105.441486 
L 250.625141 73.013176 
L 250.718191 80.7149 
L 250.904291 77.472069 
L 250.997341 80.309546 
L 251.276491 103.009363 
L 251.462591 85.579146 
L 251.555641 90.848746 
L 251.648691 88.416623 
L 251.741741 89.632685 
L 251.834791 98.145116 
L 252.020891 71.797114 
L 252.206991 98.55047 
L 252.393091 89.632685 
L 252.486141 95.712993 
L 252.579191 82.336315 
L 252.765291 95.712993 
L 252.951391 59.231144 
L 253.044441 100.171885 
L 253.323591 69.770345 
L 253.416641 81.525607 
L 253.509691 65.311452 
L 253.695791 95.307639 
L 253.788841 92.470162 
L 253.881891 85.9845 
L 253.974941 60.041852 
L 254.067991 63.690037 
L 254.161041 73.013176 
L 254.254091 99.766532 
L 254.347141 96.118347 
L 254.533241 84.363084 
L 254.626291 73.41853 
L 254.905441 98.55047 
L 255.184592 65.311452 
L 255.370692 97.334408 
L 255.463742 94.902285 
L 255.556792 79.498838 
L 255.649842 87.605915 
L 255.928992 55.58296 
L 256.115092 70.986407 
L 256.208142 62.473975 
L 256.301192 71.391761 
L 256.394242 66.527514 
L 256.487292 68.14893 
L 256.580342 62.068622 
L 256.673392 39.774159 
L 256.859492 85.9845 
L 257.045592 75.445299 
L 257.138642 79.093484 
L 257.231692 71.391761 
L 257.417792 83.957731 
L 257.510842 89.227331 
L 257.696942 59.231144 
L 257.789992 60.041852 
L 257.976092 69.364991 
L 258.069142 74.229238 
L 258.162192 73.013176 
L 258.255242 75.039945 
L 258.348292 63.284683 
L 258.441342 64.095391 
L 258.534392 58.420437 
L 258.627442 59.636498 
L 258.720492 65.716806 
L 258.813542 51.124067 
L 259.092692 65.311452 
L 259.185742 60.85256 
L 259.371842 70.175699 
L 259.557942 69.364991 
L 259.650992 69.770345 
L 259.744042 75.850653 
L 260.116242 64.095391 
L 260.302342 76.256007 
L 260.488443 71.391761 
L 260.581493 70.986407 
L 260.767593 81.120253 
L 260.860643 76.256007 
L 260.953693 58.825791 
L 261.139793 72.607822 
L 261.232843 68.959637 
L 261.325893 81.930961 
L 261.511993 69.364991 
L 261.605043 73.823884 
L 261.698093 71.797114 
L 261.791143 62.473975 
L 261.884193 76.661361 
L 262.070293 66.527514 
L 262.163343 63.284683 
L 262.349443 75.445299 
L 262.442493 59.636498 
L 262.628593 77.877423 
L 262.721643 71.797114 
L 262.814693 73.013176 
L 262.907743 63.284683 
L 263.000793 68.959637 
L 263.093843 64.095391 
L 263.279943 77.066715 
L 263.372993 62.879329 
L 263.466043 70.175699 
L 263.559093 62.879329 
L 263.652143 68.959637 
L 263.838243 54.366898 
L 264.024343 65.716806 
L 264.117393 64.906099 
L 264.210443 81.525607 
L 264.303493 77.877423 
L 264.489593 66.527514 
L 264.582643 77.066715 
L 264.768743 60.041852 
L 264.861793 77.066715 
L 264.954843 66.12216 
L 265.047893 81.525607 
L 265.327043 38.152743 
L 265.606193 73.41853 
L 265.885344 64.095391 
L 265.978394 66.12216 
L 266.164494 78.68813 
L 266.257544 74.229238 
L 266.350594 76.256007 
L 266.629744 53.150836 
L 266.815844 70.986407 
L 267.188044 43.827697 
L 267.281094 74.229238 
L 267.374144 73.41853 
L 267.467194 77.472069 
L 267.560244 73.41853 
L 267.653294 90.038039 
L 267.839394 60.041852 
L 267.932444 63.284683 
L 268.211594 79.904192 
L 268.397694 55.988313 
L 268.490744 49.908005 
L 268.769894 59.231144 
L 268.862944 59.636498 
L 268.955994 71.391761 
L 269.049044 51.934775 
L 269.235144 77.472069 
L 269.328194 57.204375 
L 269.421244 61.663268 
L 269.514294 83.552377 
L 269.607344 83.147023 
L 269.793444 51.934775 
L 269.979544 82.336315 
L 270.072594 77.066715 
L 270.165644 95.712993 
L 270.258694 77.877423 
L 270.351744 94.902285 
L 270.444794 67.338222 
L 270.630894 88.416623 
L 270.723944 75.039945 
L 270.816994 45.043759 
L 271.003094 74.634592 
L 271.282245 79.904192 
L 271.468345 67.338222 
L 271.561395 77.877423 
L 271.654445 76.256007 
L 271.747495 78.282776 
L 271.840545 91.2541 
L 271.933595 82.336315 
L 272.119695 96.929054 
L 272.305795 79.904192 
L 272.491895 93.686223 
L 272.677995 82.741669 
L 272.771045 92.470162 
L 273.050195 72.607822 
L 273.143245 75.039945 
L 273.236295 96.929054 
L 273.422395 80.309546 
L 273.515445 85.579146 
L 273.794595 70.581053 
L 273.887645 80.7149 
L 274.073745 75.850653 
L 274.259845 84.363084 
L 274.352895 85.9845 
L 274.445945 79.093484 
L 274.632045 99.361178 
L 274.818145 81.525607 
L 274.911195 83.147023 
L 275.004245 86.389854 
L 275.190345 80.7149 
L 275.283395 107.468255 
L 275.376445 103.82007 
L 275.562545 77.877423 
L 275.748645 86.795208 
L 275.841695 84.363084 
L 276.027795 86.389854 
L 276.120845 85.579146 
L 276.213895 85.9845 
L 276.399995 96.523701 
L 276.493046 97.334408 
L 276.586096 96.929054 
L 276.679146 92.470162 
L 276.772196 94.091577 
L 276.865246 90.038039 
L 277.051346 102.604009 
L 277.237446 101.793301 
L 277.330496 98.145116 
L 277.423546 100.577239 
L 277.702696 92.470162 
L 277.888796 121.655641 
L 277.981846 113.548563 
L 278.167946 85.173792 
L 278.260996 78.68813 
L 278.447096 103.82007 
L 278.540146 98.145116 
L 278.726246 106.252194 
L 278.912346 96.523701 
L 279.098446 107.062901 
L 279.191496 107.062901 
L 279.377596 81.930961 
L 279.470646 104.630778 
L 279.749796 85.579146 
L 279.842846 89.227331 
L 279.935896 97.334408 
L 280.121996 80.309546 
L 280.308096 116.38604 
L 280.494196 99.766532 
L 280.587246 93.28087 
L 280.680296 94.902285 
L 280.866396 87.200562 
L 280.959446 86.389854 
L 281.052496 90.443393 
L 281.145546 84.363084 
L 281.238596 93.686223 
L 281.331646 87.200562 
L 281.424696 88.011269 
L 281.517746 110.711086 
L 281.610796 110.305732 
L 281.796896 118.007456 
L 282.076047 103.414716 
L 282.262147 88.011269 
L 282.355197 86.795208 
L 282.448247 95.307639 
L 282.634347 87.605915 
L 282.727397 98.145116 
L 282.913497 74.634592 
L 283.099597 100.982593 
L 283.192647 96.118347 
L 283.285697 94.496931 
L 283.471797 75.445299 
L 283.657897 103.009363 
L 283.843997 81.930961 
L 283.937047 88.011269 
L 284.030097 79.093484 
L 284.123147 80.7149 
L 284.309247 99.361178 
L 284.402297 88.416623 
L 284.495347 100.171885 
L 284.681447 85.9845 
L 284.774497 100.577239 
L 284.960597 80.309546 
L 285.053647 99.766532 
L 285.332797 79.093484 
L 285.518897 98.145116 
L 285.611947 78.68813 
L 285.704997 96.929054 
L 285.798047 81.930961 
L 285.891097 90.038039 
L 286.077197 74.229238 
L 286.356347 102.604009 
L 286.542447 80.309546 
L 286.635497 59.231144 
L 286.821597 89.632685 
L 287.007697 75.445299 
L 287.286848 102.604009 
L 287.379898 88.416623 
L 287.472948 98.955824 
L 287.565998 95.712993 
L 287.659048 72.607822 
L 287.752098 76.256007 
L 287.845148 95.307639 
L 287.938198 85.579146 
L 288.031248 90.848746 
L 288.124298 65.311452 
L 288.310398 92.875516 
L 288.403448 97.334408 
L 288.496498 73.823884 
L 288.589548 103.82007 
L 288.775648 89.632685 
L 288.868698 94.091577 
L 288.961748 88.416623 
L 289.054798 95.712993 
L 289.333948 68.554283 
L 289.520048 82.741669 
L 289.613098 88.011269 
L 289.799198 39.774159 
L 289.985298 90.038039 
L 290.078348 87.605915 
L 290.171398 74.229238 
L 290.264448 85.579146 
L 290.357498 74.229238 
L 290.450548 83.147023 
L 290.543598 76.256007 
L 290.636648 80.309546 
L 290.822748 64.095391 
L 290.915798 62.879329 
L 291.008848 83.147023 
L 291.101898 81.525607 
L 291.194948 82.336315 
L 291.381048 92.064808 
L 291.567148 73.013176 
L 291.660198 88.011269 
L 291.753248 65.716806 
L 291.939348 79.498838 
L 292.032398 73.823884 
L 292.125448 94.496931 
L 292.404598 49.908005 
L 292.590699 71.797114 
L 292.776799 43.01699 
L 292.869849 78.282776 
L 292.962899 74.634592 
L 293.055949 80.7149 
L 293.148999 73.41853 
L 293.242049 75.445299 
L 293.335099 74.634592 
L 293.521199 90.443393 
L 293.614249 65.311452 
L 293.800349 83.147023 
L 293.893399 80.309546 
L 293.986449 83.552377 
L 294.079499 73.823884 
L 294.265599 85.579146 
L 294.358649 70.581053 
L 294.451699 82.336315 
L 294.544749 65.311452 
L 294.637799 65.716806 
L 294.730849 67.338222 
L 294.916949 77.472069 
L 295.009999 55.177606 
L 295.103049 75.039945 
L 295.382199 61.663268 
L 295.661349 56.799021 
L 295.847449 90.443393 
L 295.940499 71.391761 
L 296.033549 72.202468 
L 296.126599 74.634592 
L 296.219649 72.202468 
L 296.312699 57.609729 
L 296.405749 76.256007 
L 296.498799 74.634592 
L 296.591849 64.095391 
L 296.777949 77.877423 
L 296.870999 75.445299 
L 296.964049 69.364991 
L 297.057099 79.498838 
L 297.150149 74.634592 
L 297.243199 78.282776 
L 297.429299 61.257914 
L 297.615399 78.282776 
L 297.708449 80.309546 
L 297.9876 58.015083 
L 298.1737 73.41853 
L 298.26675 73.41853 
L 298.3598 77.877423 
L 298.63895 58.420437 
L 298.732 76.661361 
L 298.82505 63.690037 
L 298.9181 81.930961 
L 299.01115 69.770345 
L 299.1042 75.850653 
L 299.2903 56.799021 
L 299.38335 57.609729 
L 299.56945 63.284683 
L 299.75555 39.774159 
L 299.94165 82.336315 
L 300.0347 86.389854 
L 300.12775 76.256007 
L 300.2208 82.741669 
L 300.49995 64.095391 
L 300.593 67.743576 
L 300.68605 74.634592 
L 300.7791 70.581053 
L 300.87215 74.229238 
L 301.05825 53.55619 
L 301.24435 84.768438 
L 301.3374 83.552377 
L 301.43045 79.093484 
L 301.5235 86.389854 
L 301.61655 77.066715 
L 301.7096 78.282776 
L 301.80265 82.336315 
L 301.8957 81.120253 
L 301.98875 72.202468 
L 302.17485 49.097298 
L 302.454 79.093484 
L 302.6401 70.986407 
L 302.8262 83.147023 
L 302.91925 72.202468 
L 303.0123 75.039945 
L 303.10535 61.663268 
L 303.1984 83.552377 
L 303.291451 81.120253 
L 303.477551 70.986407 
L 303.570601 77.472069 
L 303.849751 64.500745 
L 303.942801 43.01699 
L 304.315001 95.307639 
L 304.501101 53.150836 
L 304.594151 58.825791 
L 304.780251 85.579146 
L 304.873301 93.28087 
L 305.152451 67.743576 
L 305.245501 96.118347 
L 305.338551 92.064808 
L 305.431601 93.28087 
L 305.524651 81.930961 
L 305.710751 88.416623 
L 305.896851 55.58296 
L 305.989901 56.799021 
L 306.269051 96.523701 
L 306.455151 84.768438 
L 306.641251 79.093484 
L 306.734301 77.066715 
L 306.920401 96.118347 
L 307.106501 85.173792 
L 307.199551 81.930961 
L 307.385651 58.015083 
L 307.478701 77.472069 
L 307.571751 75.039945 
L 307.664801 75.445299 
L 307.757851 77.066715 
L 307.943951 83.552377 
L 308.037001 84.363084 
L 308.223101 98.145116 
L 308.409201 75.039945 
L 308.502251 94.091577 
L 308.595301 87.200562 
L 308.781402 107.468255 
L 308.967502 81.120253 
L 309.060552 93.28087 
L 309.432752 80.309546 
L 309.525802 83.552377 
L 309.711902 100.171885 
L 309.804952 100.982593 
L 309.991052 72.202468 
L 310.084102 73.823884 
L 310.177152 103.009363 
L 310.270202 100.577239 
L 310.456302 88.416623 
L 310.642402 112.737855 
L 310.828502 99.766532 
L 310.921552 76.661361 
L 311.014602 77.066715 
L 311.107652 86.795208 
L 311.200702 85.9845 
L 311.293752 86.795208 
L 311.386802 96.523701 
L 311.572902 87.200562 
L 311.665952 97.334408 
L 311.945102 91.2541 
L 312.038152 113.953917 
L 312.317302 104.630778 
L 312.410352 101.387947 
L 312.596452 108.278963 
L 312.782552 88.011269 
L 312.875602 92.875516 
L 313.061702 113.548563 
L 313.154752 105.84684 
L 313.247802 88.821977 
L 313.340852 103.009363 
L 313.620002 86.795208 
L 313.713052 99.361178 
L 313.806102 96.523701 
L 313.899152 98.955824 
L 313.992203 97.739762 
L 314.085253 118.818164 
L 314.643553 89.227331 
L 314.736603 89.632685 
L 314.922703 85.9845 
L 315.015753 92.470162 
L 315.108803 90.848746 
L 315.201853 92.064808 
L 315.294903 88.416623 
L 315.387953 103.414716 
L 315.481003 88.821977 
L 315.574053 89.632685 
L 315.667103 105.036132 
L 315.853203 94.496931 
L 315.946253 96.523701 
L 316.132353 77.066715 
L 316.225403 84.768438 
L 316.411503 107.873609 
L 316.504553 107.468255 
L 316.597603 92.470162 
L 316.690653 104.225424 
L 316.783703 86.795208 
L 316.876753 88.011269 
L 317.062853 81.930961 
L 317.155903 90.038039 
L 317.342003 80.309546 
L 317.435053 85.579146 
L 317.528103 104.630778 
L 317.621153 100.171885 
L 317.714203 103.009363 
L 317.807253 101.387947 
L 317.900303 95.307639 
L 318.086403 105.441486 
L 318.272503 92.064808 
L 318.458603 83.147023 
L 318.551653 96.523701 
L 318.737753 83.552377 
L 318.830803 97.334408 
L 319.016903 85.173792 
L 319.109953 81.525607 
L 319.203003 93.28087 
L 319.296053 87.605915 
L 319.389104 64.095391 
L 319.575204 103.414716 
L 319.668254 86.389854 
L 319.761304 94.091577 
L 319.947404 64.500745 
L 320.040454 64.500745 
L 320.133504 47.070528 
L 320.505704 86.389854 
L 320.598754 83.147023 
L 320.691804 87.200562 
L 320.784854 79.093484 
L 320.877904 98.55047 
L 320.970954 76.256007 
L 321.064004 91.2541 
L 321.157054 89.632685 
L 321.250104 89.632685 
L 321.343154 83.552377 
L 321.529254 105.036132 
L 321.622304 84.363084 
L 321.715354 94.091577 
L 321.808404 66.12216 
L 321.901454 71.391761 
L 321.994504 84.768438 
L 322.087554 83.957731 
L 322.180604 79.093484 
L 322.273654 82.741669 
L 322.366704 80.7149 
L 322.459754 87.605915 
L 322.738904 70.175699 
L 322.831954 85.173792 
L 322.925004 71.797114 
L 323.018054 85.579146 
L 323.111104 78.68813 
L 323.204154 84.768438 
L 323.483304 31.667081 
L 323.669404 85.9845 
L 323.855504 75.850653 
L 323.948554 80.309546 
L 324.134654 65.311452 
L 324.320754 83.957731 
L 324.506854 72.202468 
L 324.692955 86.389854 
L 325.065155 27.208189 
L 325.251255 81.525607 
L 325.344305 89.632685 
L 325.437355 70.986407 
L 325.623455 84.768438 
L 325.809555 78.282776 
L 325.902605 84.363084 
L 325.995655 68.554283 
L 326.088705 69.770345 
L 326.367855 91.659454 
L 326.460905 86.795208 
L 326.553955 73.41853 
L 326.740055 80.309546 
L 326.833105 79.093484 
L 327.112255 63.284683 
L 327.205305 68.554283 
L 327.484455 53.150836 
L 327.577505 41.800928 
L 327.763605 74.229238 
L 327.856655 80.7149 
L 327.949705 73.013176 
L 328.042755 73.41853 
L 328.135805 79.498838 
L 328.228855 78.68813 
L 328.321905 79.498838 
L 328.508005 73.41853 
L 328.601055 59.231144 
L 328.694105 67.338222 
L 328.787155 66.932868 
L 328.880205 70.986407 
L 328.973255 57.204375 
L 329.252405 70.175699 
L 329.345455 64.095391 
L 329.438505 69.770345 
L 329.717655 49.097298 
L 329.810705 58.015083 
L 330.089856 50.718713 
L 330.182906 34.099204 
L 330.369006 40.179512 
L 330.555106 62.068622 
L 330.648156 57.609729 
L 330.834256 61.663268 
L 331.020356 68.14893 
L 331.113406 61.663268 
L 331.299506 77.877423 
L 331.392556 73.823884 
L 331.764756 30.045666 
L 331.950856 67.743576 
L 332.043906 64.095391 
L 332.136956 66.12216 
L 332.230006 63.690037 
L 332.416106 70.581053 
L 332.509156 87.605915 
L 332.695256 63.690037 
L 332.788306 75.850653 
L 333.067456 58.015083 
L 333.346606 77.066715 
L 333.532706 59.231144 
L 333.718806 70.175699 
L 333.811856 64.095391 
L 333.904906 64.906099 
L 334.091006 59.231144 
L 334.184056 70.986407 
L 334.370156 50.313359 
L 334.649306 74.634592 
L 334.742356 61.663268 
L 335.021506 73.41853 
L 335.207606 56.799021 
L 335.300656 57.204375 
L 335.393707 59.231144 
L 335.486757 66.12216 
L 335.579807 84.363084 
L 335.672857 73.823884 
L 335.858957 77.066715 
L 336.138107 61.257914 
L 336.231157 62.879329 
L 336.417257 69.364991 
L 336.603357 61.663268 
L 336.789457 68.554283 
L 336.975557 57.204375 
L 337.068607 62.068622 
L 337.347757 51.124067 
L 337.440807 59.636498 
L 337.533857 58.015083 
L 337.626907 65.716806 
L 337.719957 58.420437 
L 337.813007 69.770345 
L 337.906057 60.447206 
L 337.999107 76.661361 
L 338.092157 65.311452 
L 338.278257 98.145116 
L 338.371307 92.875516 
L 338.557407 61.257914 
L 338.650457 63.284683 
L 338.743507 60.447206 
L 338.929607 91.2541 
L 339.022657 90.038039 
L 339.115707 73.41853 
L 339.208757 82.336315 
L 339.301807 76.256007 
L 339.394857 79.904192 
L 339.487907 72.202468 
L 339.580957 74.634592 
L 339.674007 70.986407 
L 339.767057 60.447206 
L 339.860107 76.256007 
L 339.953157 69.364991 
L 340.046207 53.55619 
L 340.232307 69.364991 
L 340.325357 63.284683 
L 340.418407 66.12216 
L 340.604507 62.068622 
L 340.697557 58.420437 
L 340.883658 73.823884 
L 340.976708 69.770345 
L 341.162808 80.309546 
L 341.255858 76.256007 
L 341.348908 97.334408 
L 341.535008 71.797114 
L 341.628058 70.175699 
L 341.721108 77.472069 
L 341.814158 71.391761 
L 342.186358 91.659454 
L 342.372458 83.147023 
L 342.465508 92.064808 
L 342.558558 89.632685 
L 342.651608 73.823884 
L 343.023808 99.361178 
L 343.489058 73.823884 
L 343.582108 83.552377 
L 343.675158 79.904192 
L 343.768208 89.632685 
L 343.954308 85.579146 
L 344.140408 104.630778 
L 344.233458 98.55047 
L 344.326508 75.850653 
L 344.605658 113.548563 
L 344.698708 109.900378 
L 344.791758 97.334408 
L 344.884808 98.145116 
L 345.163958 92.875516 
L 345.257008 81.930961 
L 345.443108 97.739762 
L 345.629208 84.363084 
L 345.722258 97.739762 
L 345.815308 86.795208 
L 345.908358 87.200562 
L 346.094459 101.387947 
L 346.187509 105.036132 
L 346.280559 104.630778 
L 346.559709 72.202468 
L 346.652759 78.68813 
L 346.745809 97.334408 
L 346.838859 94.091577 
L 346.931909 74.634592 
L 347.024959 96.118347 
L 347.118009 94.496931 
L 347.211059 84.363084 
L 347.304109 103.414716 
L 347.769359 86.389854 
L 347.862409 102.198655 
L 348.141559 90.443393 
L 348.234609 91.659454 
L 348.327659 90.443393 
L 348.513759 85.579146 
L 348.606809 96.118347 
L 348.885959 85.173792 
L 348.979009 92.064808 
L 349.165109 84.363084 
L 349.258159 104.225424 
L 349.444259 96.929054 
L 349.537309 97.334408 
L 349.723409 88.011269 
L 349.816459 109.089671 
L 349.909509 105.441486 
L 350.188659 75.850653 
L 350.281709 74.634592 
L 350.374759 84.363084 
L 350.467809 83.957731 
L 350.560859 85.579146 
L 350.653909 77.472069 
L 350.746959 92.875516 
L 350.840009 90.038039 
L 351.026109 101.387947 
L 351.212209 81.930961 
L 351.305259 97.739762 
L 351.49136 85.579146 
L 351.58441 88.416623 
L 351.77051 63.284683 
L 352.04966 102.604009 
L 352.14271 86.795208 
L 352.23576 89.227331 
L 352.32881 103.414716 
L 352.51491 63.284683 
L 352.70101 78.282776 
L 352.88711 105.84684 
L 352.98016 103.82007 
L 353.07321 97.334408 
L 353.16626 81.525607 
L 353.25931 83.957731 
L 353.44541 85.173792 
L 353.53846 102.604009 
L 353.72456 57.609729 
L 353.91066 91.659454 
L 354.00371 79.904192 
L 354.09676 81.120253 
L 354.18981 89.227331 
L 354.28286 81.120253 
L 354.37591 89.632685 
L 354.46896 74.634592 
L 354.56201 88.416623 
L 354.74811 65.311452 
L 355.02726 100.577239 
L 355.12031 73.41853 
L 355.30641 89.632685 
L 355.49251 70.986407 
L 355.58556 102.198655 
L 355.67861 69.364991 
L 355.77166 90.443393 
L 355.86471 79.498838 
L 355.95776 89.632685 
L 356.14386 74.229238 
L 356.23691 91.659454 
L 356.32996 61.663268 
L 356.42301 83.147023 
L 356.51606 78.68813 
L 356.70216 99.361178 
L 356.79521 66.932868 
L 356.981311 95.307639 
L 357.074361 73.013176 
L 357.167411 76.661361 
L 357.260461 66.932868 
L 357.353511 77.877423 
L 357.539611 62.068622 
L 357.632661 67.743576 
L 357.818761 95.712993 
L 358.004861 56.799021 
L 358.190961 86.795208 
L 358.284011 76.661361 
L 358.377061 83.147023 
L 358.563161 53.961544 
L 358.656211 94.496931 
L 358.749261 90.038039 
L 358.935361 78.282776 
L 359.028411 81.525607 
L 359.121461 61.257914 
L 359.214511 73.013176 
L 359.307561 72.202468 
L 359.400611 72.607822 
L 359.493661 66.932868 
L 359.586711 69.364991 
L 359.772811 76.661361 
L 359.865861 77.066715 
L 359.958911 78.68813 
L 360.051961 83.147023 
L 360.238061 76.256007 
L 360.331111 54.366898 
L 360.424161 56.799021 
L 360.517211 59.231144 
L 360.703311 74.229238 
L 360.796361 74.634592 
L 360.982461 43.01699 
L 361.168561 80.309546 
L 361.540761 40.99022 
L 361.633811 28.018896 
L 361.726861 57.609729 
L 361.819911 53.961544 
L 362.099061 76.661361 
L 362.378212 44.638405 
L 362.564312 86.389854 
L 362.750412 72.607822 
L 362.843462 64.906099 
L 362.936512 67.743576 
L 363.029562 66.932868 
L 363.215662 49.908005 
L 363.308712 56.799021 
L 363.494812 86.389854 
L 363.773962 58.825791 
L 363.960062 73.823884 
L 364.053112 68.959637 
L 364.146162 75.850653 
L 364.239212 70.581053 
L 364.425312 46.259821 
L 364.704462 71.797114 
L 364.797512 60.041852 
L 364.890562 66.12216 
L 364.983612 64.095391 
L 365.169712 74.229238 
L 365.355812 59.231144 
L 365.448862 58.015083 
L 365.634962 41.395574 
L 365.821062 58.015083 
L 365.914112 59.636498 
L 366.007162 66.527514 
L 366.100212 58.825791 
L 366.193262 61.257914 
L 366.379362 71.391761 
L 366.565462 49.908005 
L 366.751562 62.879329 
L 366.844612 60.447206 
L 366.937662 63.284683 
L 367.216812 46.259821 
L 367.309862 46.259821 
L 367.402912 45.854467 
L 367.495962 41.800928 
L 367.682063 64.095391 
L 367.775113 59.636498 
L 367.961213 72.202468 
L 368.147313 53.150836 
L 368.240363 71.391761 
L 368.612563 35.72062 
L 368.798663 45.449113 
L 368.891713 42.611636 
L 368.984763 50.718713 
L 369.077813 48.28659 
L 369.263913 38.152743 
L 369.450013 52.745482 
L 369.543063 53.150836 
L 369.636113 73.013176 
L 369.729163 63.690037 
L 369.822213 64.095391 
L 369.915263 64.906099 
L 370.008313 76.256007 
L 370.101363 74.229238 
L 370.380513 54.772252 
L 370.566613 58.015083 
L 370.845763 86.795208 
L 370.938813 86.389854 
L 371.031863 77.066715 
L 371.217963 85.579146 
L 371.497113 63.690037 
L 371.683213 67.338222 
L 371.776263 47.070528 
L 371.869313 73.823884 
L 371.962363 67.338222 
L 372.055413 76.661361 
L 372.148463 68.554283 
L 372.241513 70.175699 
L 372.334563 62.879329 
L 372.427613 68.554283 
L 372.520663 68.14893 
L 372.613713 72.607822 
L 372.706763 90.443393 
L 372.799813 78.68813 
L 372.892864 80.7149 
L 372.985914 76.256007 
L 373.078964 90.038039 
L 373.172014 88.416623 
L 373.358114 83.552377 
L 373.451164 85.173792 
L 373.544214 91.2541 
L 373.823364 68.14893 
L 373.916414 60.85256 
L 374.102514 71.391761 
L 374.288614 65.716806 
L 374.381664 77.066715 
L 374.474714 66.527514 
L 374.660814 83.147023 
L 374.753864 81.120253 
L 374.846914 82.336315 
L 374.939964 86.389854 
L 375.126064 69.364991 
L 375.684364 92.064808 
L 375.777414 77.472069 
L 375.870464 77.877423 
L 376.056564 103.82007 
L 376.149614 80.309546 
L 376.335714 87.605915 
L 376.428764 81.525607 
L 376.521814 88.416623 
L 376.894014 71.391761 
L 377.080114 115.575333 
L 377.173164 119.223517 
L 377.266214 116.38604 
L 377.452314 88.821977 
L 377.545364 93.28087 
L 377.731464 83.147023 
L 377.917564 95.712993 
L 378.103664 89.227331 
L 378.196714 99.766532 
L 378.382815 83.552377 
L 378.475865 85.579146 
L 378.568915 79.498838 
L 378.941115 98.145116 
L 379.127215 105.84684 
L 379.220265 103.414716 
L 379.313315 106.657547 
L 379.592465 122.871702 
L 379.685515 115.169979 
L 379.778565 92.470162 
L 379.871615 100.577239 
L 379.964665 96.118347 
L 380.057715 85.579146 
L 380.243815 103.414716 
L 380.336865 96.523701 
L 380.429915 99.766532 
L 380.522965 96.523701 
L 380.616015 85.579146 
L 380.709065 92.470162 
L 380.802115 90.443393 
L 380.895165 96.118347 
L 380.988215 94.496931 
L 381.174315 117.602102 
L 381.267365 114.359271 
L 381.453465 101.387947 
L 381.546515 101.387947 
L 381.639565 95.712993 
L 381.825665 118.41281 
L 381.918715 112.332502 
L 382.104815 93.686223 
L 382.197865 107.873609 
L 382.290915 102.604009 
L 382.477015 79.498838 
L 382.756165 109.900378 
L 382.942265 92.064808 
L 383.035315 90.848746 
L 383.128365 96.118347 
L 383.314465 94.091577 
L 383.407515 102.198655 
L 383.500565 96.523701 
L 383.593616 82.336315 
L 383.686666 95.307639 
L 383.779716 93.28087 
L 383.965816 109.495024 
L 384.151916 97.739762 
L 384.338016 98.145116 
L 384.431066 88.416623 
L 384.524116 92.064808 
L 384.617166 104.225424 
L 384.710216 90.038039 
L 384.896316 102.604009 
L 384.989366 94.902285 
L 385.175466 107.873609 
L 385.361566 96.523701 
L 385.454616 108.684317 
L 385.640716 89.227331 
L 385.733766 89.227331 
L 385.826816 100.171885 
L 386.012916 88.821977 
L 386.105966 93.28087 
L 386.199016 104.630778 
L 386.292066 96.523701 
L 386.385116 70.986407 
L 386.571216 94.496931 
L 386.664266 91.2541 
L 386.850366 98.55047 
L 386.943416 88.821977 
L 387.036466 94.902285 
L 387.129516 84.768438 
L 387.222566 87.200562 
L 387.315616 81.930961 
L 387.501716 95.712993 
L 387.594766 73.823884 
L 387.780866 99.361178 
L 387.873916 87.605915 
L 387.966966 101.387947 
L 388.060016 88.416623 
L 388.153066 104.630778 
L 388.339166 70.581053 
L 388.618316 104.225424 
L 388.804416 77.472069 
L 388.990517 95.307639 
L 389.083567 85.579146 
L 389.176617 86.795208 
L 389.455767 80.309546 
L 389.548817 80.7149 
L 389.641867 92.470162 
L 389.734917 79.498838 
L 389.921017 95.712993 
L 390.014067 71.391761 
L 390.107117 72.607822 
L 390.200167 86.795208 
L 390.293217 83.552377 
L 390.386267 86.389854 
L 390.479317 74.634592 
L 390.572367 83.552377 
L 390.665417 70.581053 
L 390.851517 92.470162 
L 390.944567 88.416623 
L 391.037617 87.200562 
L 391.130667 70.175699 
L 391.223717 92.470162 
L 391.316767 92.064808 
L 391.409817 84.363084 
L 391.502867 90.443393 
L 391.688967 64.095391 
L 392.061167 91.2541 
L 392.340317 74.229238 
L 392.433367 86.795208 
L 392.805567 60.041852 
L 392.898617 80.7149 
L 393.270817 62.068622 
L 393.363867 37.342035 
L 393.549967 66.527514 
L 393.643017 72.607822 
L 393.736067 71.797114 
L 393.829117 68.14893 
L 393.922167 52.340129 
L 394.015217 53.150836 
L 394.108267 58.825791 
L 394.201317 50.718713 
L 394.387418 70.986407 
L 394.480468 81.930961 
L 394.666568 60.041852 
L 394.759618 58.015083 
L 394.852668 67.743576 
L 394.945718 49.097298 
L 395.317918 82.741669 
L 395.504018 73.823884 
L 395.597068 75.850653 
L 395.690118 54.772252 
L 395.783168 58.420437 
L 395.969268 75.039945 
L 396.062318 77.066715 
L 396.155368 76.256007 
L 396.248418 73.41853 
L 396.341468 58.420437 
L 396.434518 60.041852 
L 396.713668 82.741669 
L 396.806718 66.527514 
L 396.899768 73.41853 
L 396.992818 64.906099 
L 397.085868 70.986407 
L 397.178918 61.663268 
L 397.365018 66.932868 
L 397.551118 58.420437 
L 397.644168 64.906099 
L 397.923318 35.315266 
L 398.109418 62.068622 
L 398.202468 60.85256 
L 398.295518 65.311452 
L 398.388568 81.525607 
L 398.481618 78.282776 
L 398.574668 64.095391 
L 398.667718 66.12216 
L 398.760768 66.12216 
L 398.853818 70.986407 
L 399.039918 66.932868 
L 399.132968 41.800928 
L 399.226018 64.095391 
L 399.319068 55.58296 
L 399.412118 56.393667 
L 399.505168 56.393667 
L 399.598218 69.770345 
L 399.691269 58.420437 
L 399.784319 59.636498 
L 399.877369 76.256007 
L 399.970419 75.445299 
L 400.156519 64.906099 
L 400.249569 66.527514 
L 400.342619 72.607822 
L 400.435669 70.581053 
L 400.621769 59.636498 
L 400.714819 53.55619 
L 400.993969 72.202468 
L 401.087019 67.743576 
L 401.180069 54.772252 
L 401.273119 61.257914 
L 401.366169 49.502652 
L 401.459219 73.41853 
L 401.552269 68.14893 
L 401.645319 69.364991 
L 401.831419 43.827697 
L 402.017519 63.284683 
L 402.203619 58.015083 
L 402.296669 54.772252 
L 402.482769 46.665174 
L 402.575819 54.772252 
L 402.761919 44.638405 
L 402.854969 46.665174 
L 403.041069 67.338222 
L 403.134119 83.147023 
L 403.320219 62.879329 
L 403.413269 64.095391 
L 403.599369 87.605915 
L 403.692419 80.309546 
L 403.785469 64.095391 
L 403.971569 77.877423 
L 404.064619 63.690037 
L 404.157669 64.095391 
L 404.343769 74.229238 
L 404.622919 54.366898 
L 404.715969 56.393667 
L 404.809019 51.934775 
L 404.902069 41.395574 
L 405.08817 80.7149 
L 405.27427 70.986407 
L 405.36732 62.879329 
L 405.46037 65.311452 
L 405.55342 80.309546 
L 405.73952 67.338222 
L 405.83257 55.988313 
L 406.01867 63.284683 
L 406.11172 63.690037 
L 406.20477 65.311452 
L 406.29782 49.908005 
L 406.39087 58.420437 
L 406.48392 50.313359 
L 406.67002 84.768438 
L 406.76307 83.552377 
L 406.94917 71.391761 
L 407.04222 78.282776 
L 407.22832 66.12216 
L 407.32137 65.311452 
L 407.41442 79.498838 
L 407.60052 69.364991 
L 407.87967 88.821977 
L 407.97272 79.904192 
L 408.06577 86.389854 
L 408.25187 68.554283 
L 408.34492 73.823884 
L 408.53102 60.041852 
L 408.62407 70.986407 
L 408.81017 105.036132 
L 408.90322 96.929054 
L 408.99627 69.364991 
L 409.08932 81.930961 
L 409.18237 75.039945 
L 409.55457 88.821977 
L 409.64762 70.581053 
L 409.74067 88.011269 
L 409.83372 86.795208 
L 409.92677 89.632685 
L 410.11287 106.657547 
L 410.392021 82.336315 
L 410.485071 81.525607 
L 410.764221 106.657547 
L 410.857271 100.171885 
L 410.950321 85.173792 
L 411.043371 85.579146 
L 411.136421 91.659454 
L 411.229471 90.848746 
L 411.322521 90.443393 
L 411.415571 82.741669 
L 411.601671 100.577239 
L 411.787771 93.28087 
L 411.880821 83.147023 
L 411.973871 95.712993 
L 412.066921 94.902285 
L 412.159971 78.68813 
L 412.346071 107.062901 
L 412.532171 87.200562 
L 412.625221 93.686223 
L 412.904371 88.011269 
L 412.997421 93.686223 
L 413.090471 81.930961 
L 413.369621 103.82007 
L 413.462671 100.982593 
L 413.555721 109.900378 
L 413.741821 86.795208 
L 413.834871 94.902285 
L 413.927921 95.307639 
L 414.114021 93.686223 
L 414.207071 87.200562 
L 414.300121 107.062901 
L 414.393171 101.793301 
L 414.579271 83.552377 
L 414.672321 87.200562 
L 414.858421 104.630778 
L 415.137571 82.741669 
L 415.230621 79.498838 
L 415.323671 88.011269 
L 415.416721 79.498838 
L 415.509771 97.334408 
L 415.695871 85.579146 
L 415.788922 85.9845 
L 415.881972 85.173792 
L 415.975022 81.120253 
L 416.161122 98.55047 
L 416.254172 92.064808 
L 416.347222 95.307639 
L 416.440272 92.875516 
L 416.626372 104.630778 
L 416.812472 85.173792 
L 416.905522 101.793301 
L 417.091622 81.930961 
L 417.277722 93.686223 
L 417.370772 90.038039 
L 417.463822 98.55047 
L 417.556872 96.929054 
L 417.649922 98.955824 
L 417.742972 90.443393 
L 417.836022 93.28087 
L 417.929072 87.200562 
L 418.208222 94.902285 
L 418.301272 93.686223 
L 418.580422 84.768438 
L 418.673472 100.171885 
L 418.766522 98.145116 
L 418.859572 94.091577 
L 418.952622 94.902285 
L 419.045672 92.470162 
L 419.138722 116.38604 
L 419.324822 77.877423 
L 419.603972 100.577239 
L 419.697022 86.389854 
L 419.883122 94.091577 
L 419.976172 82.741669 
L 420.069222 83.147023 
L 420.255322 112.737855 
L 420.348372 103.414716 
L 420.534472 65.716806 
L 420.813622 95.712993 
L 420.999722 82.741669 
L 421.092773 109.900378 
L 421.371923 58.825791 
L 421.558023 97.334408 
L 421.651073 103.82007 
L 421.837173 58.825791 
L 422.023273 106.252194 
L 422.116323 79.904192 
L 422.209373 89.632685 
L 422.395473 79.093484 
L 422.581573 84.768438 
L 422.674623 80.309546 
L 422.767673 68.14893 
L 422.860723 87.605915 
L 422.953773 85.173792 
L 423.046823 100.577239 
L 423.139873 85.173792 
L 423.232923 87.605915 
L 423.325973 77.066715 
L 423.512073 94.496931 
L 423.605123 93.686223 
L 423.698173 60.85256 
L 423.791223 65.716806 
L 423.884273 82.336315 
L 423.977323 79.093484 
L 424.070373 80.7149 
L 424.163423 98.955824 
L 424.256473 80.7149 
L 424.349523 88.416623 
L 424.535623 74.634592 
L 424.628673 77.877423 
L 424.907823 50.313359 
L 425.000873 69.770345 
L 425.093923 64.500745 
L 425.186973 64.906099 
L 425.280023 62.473975 
L 425.373073 77.066715 
L 425.466123 72.202468 
L 425.559173 79.904192 
L 425.652223 74.229238 
L 425.838323 47.070528 
L 426.117473 78.282776 
L 426.210523 90.038039 
L 426.396623 68.959637 
L 426.489674 65.716806 
L 426.768824 89.227331 
L 426.861874 81.525607 
L 427.047974 91.2541 
L 427.141024 64.095391 
L 427.327124 82.336315 
L 427.420174 79.904192 
L 427.513224 72.202468 
L 427.606274 72.607822 
L 427.699324 89.227331 
L 427.885424 65.311452 
L 427.978474 73.41853 
L 428.071524 70.986407 
L 428.164574 71.391761 
L 428.443724 41.800928 
L 428.536774 43.01699 
L 428.629824 46.259821 
L 428.908974 80.309546 
L 429.002024 79.904192 
L 429.095074 68.14893 
L 429.188124 78.68813 
L 429.467274 69.770345 
L 429.560324 68.554283 
L 429.653374 55.177606 
L 429.746424 65.311452 
L 429.839474 62.473975 
L 429.932524 71.797114 
L 430.025574 71.391761 
L 430.118624 68.554283 
L 430.211674 84.363084 
L 430.397774 65.716806 
L 430.676924 70.175699 
L 430.769974 61.257914 
L 430.863024 72.202468 
L 430.863024 72.202468 
" style="fill:none;stroke:#4c72b0;stroke-linecap:round;stroke-width:0.75;"/>
   </g>
   <g id="patch_3">
    <path d="M 74.346535 130.228875 
L 74.346535 12.96 
" style="fill:none;stroke:#ffffff;stroke-linecap:square;stroke-linejoin:miter;stroke-width:1.25;"/>
   </g>
   <g id="patch_4">
    <path d="M 447.84 130.228875 
L 447.84 12.96 
" style="fill:none;stroke:#ffffff;stroke-linecap:square;stroke-linejoin:miter;stroke-width:1.25;"/>
   </g>
   <g id="patch_5">
    <path d="M 74.346535 130.228875 
L 447.84 130.228875 
" style="fill:none;stroke:#ffffff;stroke-linecap:square;stroke-linejoin:miter;stroke-width:1.25;"/>
   </g>
   <g id="patch_6">
    <path d="M 74.346535 12.96 
L 447.84 12.96 
" style="fill:none;stroke:#ffffff;stroke-linecap:square;stroke-linejoin:miter;stroke-width:1.25;"/>
   </g>
  </g>
  <g id="axes_2">
   <g id="patch_7">
    <path d="M 74.346535 295.1415 
L 447.84 295.1415 
L 447.84 177.872625 
L 74.346535 177.872625 
z
" style="fill:#eaeaf2;"/>
   </g>
   <g id="matplotlib.axis_3">
    <g id="xtick_9">
     <g id="line2d_13">
      <path clip-path="url(#p4085c7a017)" d="M 91.323511 295.1415 
L 91.323511 177.872625 
" style="fill:none;stroke:#ffffff;stroke-linecap:round;"/>
     </g>
     <g id="text_14">
      <!-- $\mathdefault{10^{0}}$ -->
      <g style="fill:#262626;" transform="translate(83.513511 312.154156)scale(0.11 -0.11)">
       <use transform="translate(0 0.684375)" xlink:href="#STIXGeneral-Regular-31"/>
       <use transform="translate(49.999985 0.684375)" xlink:href="#STIXGeneral-Regular-30"/>
       <use transform="translate(101.574969 36.684375)scale(0.7)" xlink:href="#STIXGeneral-Regular-30"/>
      </g>
     </g>
    </g>
    <g id="xtick_10">
     <g id="line2d_14">
      <path clip-path="url(#p4085c7a017)" d="M 261.841323 295.1415 
L 261.841323 177.872625 
" style="fill:none;stroke:#ffffff;stroke-linecap:round;"/>
     </g>
     <g id="text_15">
      <!-- $\mathdefault{10^{1}}$ -->
      <g style="fill:#262626;" transform="translate(254.031323 312.154156)scale(0.11 -0.11)">
       <use transform="translate(0 0.684375)" xlink:href="#STIXGeneral-Regular-31"/>
       <use transform="translate(49.999985 0.684375)" xlink:href="#STIXGeneral-Regular-30"/>
       <use transform="translate(101.574969 36.684375)scale(0.7)" xlink:href="#STIXGeneral-Regular-31"/>
      </g>
     </g>
    </g>
    <g id="xtick_11">
     <g id="line2d_15">
      <path clip-path="url(#p4085c7a017)" d="M 432.359135 295.1415 
L 432.359135 177.872625 
" style="fill:none;stroke:#ffffff;stroke-linecap:round;"/>
     </g>
     <g id="text_16">
      <!-- $\mathdefault{10^{2}}$ -->
      <g style="fill:#262626;" transform="translate(424.549135 312.154156)scale(0.11 -0.11)">
       <use transform="translate(0 0.684375)" xlink:href="#STIXGeneral-Regular-31"/>
       <use transform="translate(49.999985 0.684375)" xlink:href="#STIXGeneral-Regular-30"/>
       <use transform="translate(101.574969 36.684375)scale(0.7)" xlink:href="#STIXGeneral-Regular-32"/>
      </g>
     </g>
    </g>
    <g id="xtick_12"/>
    <g id="xtick_13"/>
    <g id="xtick_14"/>
    <g id="xtick_15"/>
    <g id="xtick_16"/>
    <g id="xtick_17"/>
    <g id="xtick_18"/>
    <g id="xtick_19"/>
    <g id="xtick_20"/>
    <g id="xtick_21"/>
    <g id="xtick_22"/>
    <g id="xtick_23"/>
    <g id="xtick_24"/>
    <g id="xtick_25"/>
    <g id="xtick_26"/>
    <g id="xtick_27"/>
    <g id="xtick_28"/>
    <g id="xtick_29"/>
    <g id="text_17">
     <!-- Timescale [day] -->
     <g style="fill:#262626;" transform="translate(222.27233 326.737125)scale(0.12 -0.12)">
      <defs>
       <path d="M 1152 4045 
Q 1152 3904 1056 3811 
Q 960 3718 819 3718 
Q 685 3718 592 3811 
Q 499 3904 499 4045 
Q 499 4179 595 4275 
Q 691 4371 826 4371 
Q 966 4371 1059 4275 
Q 1152 4179 1152 4045 
z
M 1619 0 
L 102 0 
L 102 96 
Q 435 115 521 211 
Q 608 307 608 666 
L 608 2118 
Q 608 2342 563 2432 
Q 518 2522 397 2522 
Q 243 2522 128 2490 
L 128 2592 
L 1120 2944 
L 1146 2918 
L 1146 672 
Q 1146 314 1226 218 
Q 1306 122 1619 96 
L 1619 0 
z
" id="STIXGeneral-Regular-69" transform="scale(0.015625)"/>
       <path d="M 998 1926 
L 1664 1523 
Q 1984 1331 2105 1164 
Q 2227 998 2227 736 
Q 2227 416 1961 176 
Q 1696 -64 1331 -64 
Q 1030 -64 864 -6 
Q 691 51 570 51 
Q 461 51 416 -26 
L 333 -26 
L 333 979 
L 435 979 
Q 538 512 730 294 
Q 922 77 1248 77 
Q 1485 77 1632 211 
Q 1779 346 1779 550 
Q 1779 845 1440 1030 
L 1094 1222 
Q 326 1651 326 2150 
Q 326 2522 566 2730 
Q 806 2938 1210 2938 
Q 1491 2938 1638 2867 
Q 1754 2816 1818 2816 
Q 1862 2816 1920 2880 
L 1990 2880 
L 2022 2010 
L 1926 2010 
Q 1818 2445 1654 2621 
Q 1491 2797 1203 2797 
Q 986 2797 854 2688 
Q 723 2579 723 2362 
Q 723 2253 796 2128 
Q 870 2003 998 1926 
z
" id="STIXGeneral-Regular-73" transform="scale(0.015625)"/>
       <path d="M 2547 998 
L 2637 941 
Q 2362 403 2112 205 
Q 1786 -64 1376 -64 
Q 845 -64 502 336 
Q 160 736 160 1357 
Q 160 2170 698 2618 
Q 1094 2944 1562 2944 
Q 1965 2944 2256 2749 
Q 2547 2554 2547 2285 
Q 2547 2176 2457 2096 
Q 2368 2016 2246 2016 
Q 2022 2016 1939 2310 
L 1901 2451 
Q 1850 2630 1773 2694 
Q 1696 2758 1523 2758 
Q 1133 2758 893 2451 
Q 653 2144 653 1645 
Q 653 1094 928 745 
Q 1203 397 1645 397 
Q 1920 397 2118 528 
Q 2317 659 2547 998 
z
" id="STIXGeneral-Regular-63" transform="scale(0.015625)"/>
       <path d="M 1645 0 
L 134 0 
L 134 96 
Q 435 122 531 221 
Q 627 320 627 589 
L 627 3590 
Q 627 3821 569 3910 
Q 512 4000 358 4000 
Q 224 4000 122 3987 
L 122 4090 
Q 730 4237 1133 4371 
L 1165 4346 
L 1165 557 
Q 1165 288 1254 201 
Q 1344 115 1645 96 
L 1645 0 
z
" id="STIXGeneral-Regular-6c" transform="scale(0.015625)"/>
      </defs>
      <use xlink:href="#STIXGeneral-Regular-54"/>
      <use x="61.099991" xlink:href="#STIXGeneral-Regular-69"/>
      <use x="88.899979" xlink:href="#STIXGeneral-Regular-6d"/>
      <use x="166.699966" xlink:href="#STIXGeneral-Regular-65"/>
      <use x="211.09996" xlink:href="#STIXGeneral-Regular-73"/>
      <use x="249.999954" xlink:href="#STIXGeneral-Regular-63"/>
      <use x="294.399948" xlink:href="#STIXGeneral-Regular-61"/>
      <use x="338.799942" xlink:href="#STIXGeneral-Regular-6c"/>
      <use x="366.59993" xlink:href="#STIXGeneral-Regular-65"/>
      <use x="410.999924" xlink:href="#STIXGeneral-Regular-20"/>
      <use x="435.999908" xlink:href="#STIXGeneral-Regular-5b"/>
      <use x="469.299896" xlink:href="#STIXGeneral-Regular-64"/>
      <use x="519.299881" xlink:href="#STIXGeneral-Regular-61"/>
      <use x="563.699875" xlink:href="#STIXGeneral-Regular-79"/>
      <use x="613.69986" xlink:href="#STIXGeneral-Regular-5d"/>
     </g>
    </g>
   </g>
   <g id="matplotlib.axis_4">
    <g id="ytick_4">
     <g id="text_18">
      <!-- $\mathdefault{2\times10^{0}}$ -->
      <g style="fill:#262626;" transform="translate(35.376535 272.937095)scale(0.11 -0.11)">
       <defs>
        <path d="M 3821 141 
L 3526 -160 
L 2048 1312 
L 570 -160 
L 275 134 
L 1747 1613 
L 275 3091 
L 576 3386 
L 2048 1914 
L 3526 3386 
L 3821 3098 
L 2349 1613 
L 3821 141 
z
" id="STIXGeneral-Regular-d7" transform="scale(0.015625)"/>
       </defs>
       <use transform="translate(0 0.684375)" xlink:href="#STIXGeneral-Regular-32"/>
       <use transform="translate(65.559982 0.684375)" xlink:href="#STIXGeneral-Regular-d7"/>
       <use transform="translate(145.119965 0.684375)" xlink:href="#STIXGeneral-Regular-31"/>
       <use transform="translate(195.119949 0.684375)" xlink:href="#STIXGeneral-Regular-30"/>
       <use transform="translate(246.694934 36.684375)scale(0.7)" xlink:href="#STIXGeneral-Regular-30"/>
      </g>
     </g>
    </g>
    <g id="ytick_5">
     <g id="text_19">
      <!-- $\mathdefault{3\times10^{0}}$ -->
      <g style="fill:#262626;" transform="translate(35.376535 247.929429)scale(0.11 -0.11)">
       <use transform="translate(0 0.684375)" xlink:href="#STIXGeneral-Regular-33"/>
       <use transform="translate(65.559982 0.684375)" xlink:href="#STIXGeneral-Regular-d7"/>
       <use transform="translate(145.119965 0.684375)" xlink:href="#STIXGeneral-Regular-31"/>
       <use transform="translate(195.119949 0.684375)" xlink:href="#STIXGeneral-Regular-30"/>
       <use transform="translate(246.694934 36.684375)scale(0.7)" xlink:href="#STIXGeneral-Regular-30"/>
      </g>
     </g>
    </g>
    <g id="ytick_6">
     <g id="text_20">
      <!-- $\mathdefault{4\times10^{0}}$ -->
      <g style="fill:#262626;" transform="translate(35.376535 230.186207)scale(0.11 -0.11)">
       <defs>
        <path d="M 3027 1069 
L 2368 1069 
L 2368 0 
L 1869 0 
L 1869 1069 
L 77 1069 
L 77 1478 
L 2086 4326 
L 2368 4326 
L 2368 1478 
L 3027 1478 
L 3027 1069 
z
M 1869 1478 
L 1869 3674 
L 333 1478 
L 1869 1478 
z
" id="STIXGeneral-Regular-34" transform="scale(0.015625)"/>
       </defs>
       <use transform="translate(0 0.684375)" xlink:href="#STIXGeneral-Regular-34"/>
       <use transform="translate(65.559982 0.684375)" xlink:href="#STIXGeneral-Regular-d7"/>
       <use transform="translate(145.119965 0.684375)" xlink:href="#STIXGeneral-Regular-31"/>
       <use transform="translate(195.119949 0.684375)" xlink:href="#STIXGeneral-Regular-30"/>
       <use transform="translate(246.694934 36.684375)scale(0.7)" xlink:href="#STIXGeneral-Regular-30"/>
      </g>
     </g>
    </g>
    <g id="ytick_7"/>
    <g id="ytick_8">
     <g id="text_21">
      <!-- $\mathdefault{6\times10^{0}}$ -->
      <g style="fill:#262626;" transform="translate(35.376535 205.178542)scale(0.11 -0.11)">
       <defs>
        <path d="M 2854 4378 
L 2867 4275 
Q 2112 4154 1606 3664 
Q 1101 3174 973 2451 
Q 1344 2739 1786 2739 
Q 2349 2739 2672 2380 
Q 2995 2022 2995 1402 
Q 2995 774 2669 378 
Q 2291 -90 1651 -90 
Q 870 -90 518 557 
Q 218 1107 218 1786 
Q 218 2835 915 3552 
Q 1312 3962 1731 4131 
Q 2150 4301 2854 4378 
z
M 2419 1203 
Q 2419 2445 1555 2445 
Q 1235 2445 1024 2275 
Q 813 2106 813 1702 
Q 813 954 1046 522 
Q 1280 90 1722 90 
Q 2061 90 2240 394 
Q 2419 698 2419 1203 
z
" id="STIXGeneral-Regular-36" transform="scale(0.015625)"/>
       </defs>
       <use transform="translate(0 0.684375)" xlink:href="#STIXGeneral-Regular-36"/>
       <use transform="translate(65.559982 0.684375)" xlink:href="#STIXGeneral-Regular-d7"/>
       <use transform="translate(145.119965 0.684375)" xlink:href="#STIXGeneral-Regular-31"/>
       <use transform="translate(195.119949 0.684375)" xlink:href="#STIXGeneral-Regular-30"/>
       <use transform="translate(246.694934 36.684375)scale(0.7)" xlink:href="#STIXGeneral-Regular-30"/>
      </g>
     </g>
    </g>
    <g id="ytick_9"/>
    <g id="ytick_10"/>
    <g id="text_22">
     <!-- AVAR $\sigma_A^2$ -->
     <g style="fill:#262626;" transform="translate(28.136535 260.867062)rotate(-90)scale(0.12 -0.12)">
      <defs>
       <path d="M 4525 0 
L 2893 0 
L 2893 122 
Q 3149 122 3245 179 
Q 3334 224 3334 333 
Q 3334 499 3213 781 
L 2950 1382 
L 1274 1382 
L 979 653 
Q 922 506 922 384 
Q 922 237 1027 179 
Q 1133 122 1370 122 
L 1370 0 
L 96 0 
L 96 122 
Q 365 147 486 316 
Q 608 486 902 1190 
L 2221 4314 
L 2349 4314 
L 3923 710 
Q 4064 378 4176 262 
Q 4288 147 4525 122 
L 4525 0 
z
M 2861 1645 
L 2118 3405 
L 1382 1645 
L 2861 1645 
z
" id="STIXGeneral-Regular-41" transform="scale(0.015625)"/>
       <path d="M 4461 4237 
L 4461 4115 
Q 4262 4109 4134 3990 
Q 4006 3872 3872 3533 
L 2451 -70 
L 2355 -70 
L 794 3411 
Q 589 3866 467 3987 
Q 346 4109 102 4115 
L 102 4237 
L 1798 4237 
L 1798 4115 
L 1619 4102 
Q 1331 4083 1331 3904 
Q 1331 3776 1581 3219 
L 2554 1030 
L 3494 3392 
Q 3616 3699 3616 3853 
Q 3616 3898 3606 3933 
Q 3597 3968 3584 3993 
Q 3571 4019 3536 4038 
Q 3501 4058 3481 4067 
Q 3462 4077 3411 4086 
Q 3360 4096 3337 4099 
Q 3315 4102 3248 4108 
Q 3181 4115 3155 4115 
L 3155 4237 
L 4461 4237 
z
" id="STIXGeneral-Regular-56" transform="scale(0.015625)"/>
       <path d="M 4224 0 
L 3187 0 
L 1664 1971 
L 1306 1958 
L 1306 717 
Q 1306 352 1405 249 
Q 1504 147 1875 122 
L 1875 0 
L 109 0 
L 109 122 
Q 474 154 563 262 
Q 653 371 653 794 
L 653 3526 
Q 653 3885 563 3987 
Q 474 4090 109 4115 
L 109 4237 
L 1850 4237 
Q 2726 4237 3187 3859 
Q 3501 3603 3501 3091 
Q 3501 2221 2342 2042 
L 3622 422 
Q 3757 256 3878 198 
Q 4000 141 4224 122 
L 4224 0 
z
M 1306 3731 
L 1306 2195 
Q 1766 2202 1990 2246 
Q 2214 2291 2438 2413 
Q 2803 2618 2803 3142 
Q 2803 4000 1632 4000 
Q 1459 4000 1382 3945 
Q 1306 3891 1306 3731 
z
" id="STIXGeneral-Regular-52" transform="scale(0.015625)"/>
       <path d="M 3398 2739 
L 3283 2266 
L 2195 2266 
Q 2291 2112 2457 1981 
Q 2624 1850 2717 1725 
Q 2810 1600 2810 1389 
Q 2810 851 2288 390 
Q 1766 -70 1107 -70 
Q 659 -70 416 170 
Q 173 410 173 832 
Q 173 1274 409 1706 
Q 646 2138 1113 2438 
Q 1581 2739 2157 2739 
L 3398 2739 
z
M 2272 1414 
Q 2272 1709 2166 1939 
Q 2061 2170 1901 2266 
Q 1530 2266 1120 1770 
Q 710 1274 710 640 
Q 710 358 844 211 
Q 979 64 1210 64 
Q 1638 64 1955 525 
Q 2272 986 2272 1414 
z
" id="STIXGeneral-Italic-3c3" transform="scale(0.015625)"/>
       <path d="M 3610 0 
L 2042 0 
L 2042 102 
Q 2330 115 2432 192 
Q 2534 269 2534 442 
Q 2534 493 2522 608 
L 2394 1446 
L 986 1446 
L 608 736 
Q 467 474 467 314 
Q 467 122 864 102 
L 864 0 
L -326 0 
L -326 102 
Q -109 147 28 307 
Q 166 467 531 1101 
L 2355 4275 
L 2522 4275 
L 3110 736 
Q 3174 339 3264 230 
Q 3354 122 3610 102 
L 3610 0 
z
M 2362 1677 
L 2074 3360 
L 1120 1677 
L 2362 1677 
z
" id="STIXGeneral-Italic-41" transform="scale(0.015625)"/>
      </defs>
      <use transform="translate(0 0.409375)" xlink:href="#STIXGeneral-Regular-41"/>
      <use transform="translate(72.199982 0.409375)" xlink:href="#STIXGeneral-Regular-56"/>
      <use transform="translate(144.399963 0.409375)" xlink:href="#STIXGeneral-Regular-41"/>
      <use transform="translate(216.599945 0.409375)" xlink:href="#STIXGeneral-Regular-52"/>
      <use transform="translate(283.299942 0.409375)" xlink:href="#STIXGeneral-Regular-20"/>
      <use transform="translate(308.299927 0.409375)" xlink:href="#STIXGeneral-Italic-3c3"/>
      <use transform="translate(364.000696 35.684375)scale(0.7)" xlink:href="#STIXGeneral-Regular-32"/>
      <use transform="translate(358.099915 -26.046875)scale(0.7)" xlink:href="#STIXGeneral-Italic-41"/>
     </g>
    </g>
   </g>
   <g id="line2d_16">
    <path clip-path="url(#p4085c7a017)" d="M -1 229.029015 
L 91.323511 229.028085 
L 142.654487 237.095469 
L 172.681183 247.007583 
L 193.985463 255.883623 
L 210.510347 262.639271 
L 224.012159 267.754641 
L 235.42778 271.767762 
L 245.316439 275.065626 
L 254.038856 277.917468 
L 261.841323 280.5643 
L 268.899513 282.977346 
L 275.343136 284.910012 
L 281.270694 286.557183 
L 286.758756 287.904184 
L 291.868019 288.870346 
L 296.647416 289.48446 
L 301.136969 289.811097 
L 305.369832 289.715611 
L 309.373777 289.283571 
L 313.172299 288.498735 
L 316.785452 287.40927 
L 320.230489 286.08524 
L 323.522362 284.599012 
L 326.674112 282.99787 
L 329.697182 281.272208 
L 332.60167 279.451545 
L 335.396528 277.549298 
L 338.089732 275.557935 
L 340.688418 273.52003 
L 343.198995 271.476937 
L 345.627244 269.432343 
L 347.978392 267.3835 
L 350.257185 265.311867 
L 352.467945 263.221144 
L 354.614615 261.122136 
L 356.700808 259.062082 
L 358.729838 257.058147 
L 360.704753 255.075701 
L 362.628366 253.111274 
L 364.503275 251.177262 
L 366.331885 249.268967 
L 368.116428 247.382545 
L 369.858978 245.51886 
L 371.561465 243.677526 
L 373.225691 241.863 
L 374.853338 240.078531 
L 376.445979 238.322725 
L 378.005088 236.595133 
L 379.532048 234.891109 
L 381.028159 233.213858 
L 382.494641 231.563438 
L 383.932646 229.939556 
L 385.343259 228.347869 
L 386.727504 226.78278 
L 388.086349 225.242096 
L 389.420708 223.731244 
L 390.731449 222.253629 
L 392.019394 220.808595 
L 393.285321 219.391179 
L 394.529971 218.002904 
L 395.754048 216.644245 
L 396.95822 215.309634 
L 398.143124 213.998842 
L 399.309368 212.714708 
L 400.45753 211.462973 
L 401.588161 210.238024 
L 402.701791 209.040733 
L 403.798921 207.869975 
L 404.880034 206.727885 
L 405.945591 205.616478 
L 406.996034 204.531607 
L 408.031784 203.465542 
L 409.053248 202.414923 
L 410.060814 201.381409 
L 411.054855 200.367848 
L 412.035729 199.376589 
L 413.003782 198.407653 
L 413.959342 197.465597 
L 414.90273 196.550983 
L 415.834251 195.657924 
L 416.7542 194.785346 
L 417.662861 193.932119 
L 418.560508 193.100233 
L 419.447404 192.290789 
L 420.323804 191.503119 
L 421.189954 190.737424 
L 422.04609 189.994535 
L 422.892441 189.274018 
L 423.729229 188.574303 
L 424.556668 187.895127 
L 425.374963 187.236474 
L 426.184314 186.59952 
L 426.984916 185.98465 
L 427.776955 185.39037 
L 428.560613 184.815876 
L 429.336064 184.259805 
L 430.10348 183.721217 
L 430.863024 183.203028 
" style="fill:none;stroke:#4c72b0;stroke-linecap:round;stroke-width:1.5;"/>
   </g>
   <g id="patch_8">
    <path d="M 74.346535 295.1415 
L 74.346535 177.872625 
" style="fill:none;stroke:#ffffff;stroke-linecap:square;stroke-linejoin:miter;stroke-width:1.25;"/>
   </g>
   <g id="patch_9">
    <path d="M 447.84 295.1415 
L 447.84 177.872625 
" style="fill:none;stroke:#ffffff;stroke-linecap:square;stroke-linejoin:miter;stroke-width:1.25;"/>
   </g>
   <g id="patch_10">
    <path d="M 74.346535 295.1415 
L 447.84 295.1415 
" style="fill:none;stroke:#ffffff;stroke-linecap:square;stroke-linejoin:miter;stroke-width:1.25;"/>
   </g>
   <g id="patch_11">
    <path d="M 74.346535 177.872625 
L 447.84 177.872625 
" style="fill:none;stroke:#ffffff;stroke-linecap:square;stroke-linejoin:miter;stroke-width:1.25;"/>
   </g>
  </g>
 </g>
 <defs>
  <clipPath id="p3dd71903c1">
   <rect height="117.268875" width="373.493465" x="74.346535" y="12.96"/>
  </clipPath>
  <clipPath id="p4085c7a017">
   <rect height="117.268875" width="373.493465" x="74.346535" y="177.872625"/>
  </clipPath>
 </defs>
</svg>
